<svg width="24" height="24" viewBox="0 0 24 24" fill="none" xmlns="http://www.w3.org/2000/svg">
<path d="M20.3635 11.293C20.5509 11.4806 20.6562 11.7349 20.6562 12C20.6562 12.2652 20.5509 12.5195 20.3635 12.707L14.7065 18.364C14.6142 18.4595 14.5039 18.5357 14.3819 18.5881C14.2599 18.6405 14.1286 18.6681 13.9959 18.6693C13.8631 18.6704 13.7314 18.6451 13.6085 18.5948C13.4856 18.5446 13.374 18.4703 13.2801 18.3764C13.1862 18.2825 13.1119 18.1709 13.0616 18.048C13.0114 17.9251 12.9861 17.7934 12.9872 17.6606C12.9884 17.5278 13.016 17.3966 13.0684 17.2746C13.1208 17.1526 13.197 17.0423 13.2925 16.95L17.2425 13L3.99946 13C3.73425 13 3.47989 12.8947 3.29236 12.7071C3.10482 12.5196 2.99946 12.2652 2.99946 12C2.99946 11.7348 3.10482 11.4805 3.29236 11.2929C3.47989 11.1054 3.73425 11 3.99946 11L17.2425 11L13.2925 7.05002C13.1103 6.86142 13.0095 6.60882 13.0118 6.34662C13.0141 6.08443 13.1192 5.83361 13.3046 5.6482C13.4901 5.4628 13.7409 5.35763 14.0031 5.35535C14.2653 5.35307 14.5179 5.45386 14.7065 5.63602L20.3635 11.293Z" fill="#2D2D2D"/>
</svg>
