<svg width="32" height="32" viewBox="0 0 32 32" fill="none" xmlns="http://www.w3.org/2000/svg">
<path d="M29.5 9H28V8.114C28.0139 7.30357 27.706 6.52069 27.1436 5.93696C26.5812 5.35323 25.8104 5.01629 25 5H18.5C17.9997 5.00325 17.5082 5.13271 17.0712 5.37639C16.6342 5.62006 16.2658 5.97007 16 6.394C15.7342 5.97007 15.3658 5.62006 14.9288 5.37639C14.4918 5.13271 14.0003 5.00325 13.5 5H7C6.18962 5.01629 5.41876 5.35323 4.8564 5.93696C4.29404 6.52069 3.98607 7.30357 4 8.114V9H2.5C1.96957 9 1.46086 9.21071 1.08579 9.58579C0.710714 9.96086 0.5 10.4696 0.5 11V21C0.500794 21.7954 0.81712 22.558 1.37956 23.1204C1.94199 23.6829 2.70459 23.9992 3.5 24H4.5V26C4.48556 26.1184 4.49491 26.2385 4.52749 26.3532C4.56007 26.468 4.61524 26.5751 4.68975 26.6682C4.76426 26.7613 4.85662 26.8387 4.96141 26.8956C5.06621 26.9526 5.18132 26.9881 5.3 27H7.7C7.81868 26.9881 7.93379 26.9526 8.03859 26.8956C8.14338 26.8387 8.23574 26.7613 8.31025 26.6682C8.38476 26.5751 8.43993 26.468 8.47251 26.3532C8.50509 26.2385 8.51444 26.1184 8.5 26V24H23.5V26C23.4856 26.1184 23.4949 26.2385 23.5275 26.3532C23.5601 26.468 23.6152 26.5751 23.6898 26.6682C23.7643 26.7613 23.8566 26.8387 23.9614 26.8956C24.0662 26.9526 24.1813 26.9881 24.3 27H26.7C26.8187 26.9881 26.9338 26.9526 27.0386 26.8956C27.1434 26.8387 27.2357 26.7613 27.3102 26.6682C27.3848 26.5751 27.4399 26.468 27.4725 26.3532C27.5051 26.2385 27.5144 26.1184 27.5 26V24H28.5C29.2954 23.9992 30.058 23.6829 30.6204 23.1204C31.1829 22.558 31.4992 21.7954 31.5 21V11C31.5 10.4696 31.2893 9.96086 30.9142 9.58579C30.5391 9.21071 30.0304 9 29.5 9ZM18.5 6H25C25.5452 6.01609 26.0618 6.24761 26.4367 6.64384C26.8116 7.04007 27.0141 7.56872 27 8.114V9.071C26.5719 9.18152 26.1925 9.43077 25.9212 9.77978C25.6498 10.1288 25.5017 10.5579 25.5 11V15H18C17.4698 14.997 16.9496 15.1445 16.5 15.4255V8.114C16.4859 7.56872 16.6884 7.04007 17.0633 6.64384C17.4382 6.24761 17.9548 6.01609 18.5 6ZM6.5 19V16H14C14.813 16 15.5 16.504 15.5 17.1V19H6.5ZM16.5 17.1C16.5 16.504 17.187 16 18 16H25.5V19H16.5V17.1ZM7 6H13.5C14.0452 6.01609 14.5618 6.24761 14.9367 6.64384C15.3116 7.04007 15.5141 7.56872 15.5 8.114V15.4255C15.0504 15.1445 14.5302 14.997 14 15H6.5V11C6.49834 10.5579 6.35024 10.1288 6.07885 9.77978C5.80746 9.43077 5.42807 9.18152 5 9.071V8.114C4.98587 7.56872 5.18842 7.04007 5.56329 6.64384C5.93816 6.24761 6.45478 6.01609 7 6ZM7.5 26H5.5V24H7.5V26ZM26.5 26H24.5V24H26.5V26ZM30.5 21C30.5 21.5304 30.2893 22.0391 29.9142 22.4142C29.5391 22.7893 29.0304 23 28.5 23H3.5C2.96957 23 2.46086 22.7893 2.08579 22.4142C1.71071 22.0391 1.5 21.5304 1.5 21V11C1.5 10.7348 1.60536 10.4804 1.79289 10.2929C1.98043 10.1054 2.23478 10 2.5 10H4.5C4.76522 10 5.01957 10.1054 5.20711 10.2929C5.39464 10.4804 5.5 10.7348 5.5 11V19.5C5.5 19.6326 5.55268 19.7598 5.64645 19.8536C5.74021 19.9473 5.86739 20 6 20H26C26.1326 20 26.2598 19.9473 26.3536 19.8536C26.4473 19.7598 26.5 19.6326 26.5 19.5V11C26.5 10.7348 26.6054 10.4804 26.7929 10.2929C26.9804 10.1054 27.2348 10 27.5 10H29.5C29.7652 10 30.0196 10.1054 30.2071 10.2929C30.3946 10.4804 30.5 10.7348 30.5 11V21Z" fill="#3F4041"/>
</svg>
