<svg width="32" height="32" viewBox="0 0 32 32" fill="none" xmlns="http://www.w3.org/2000/svg">
<g clip-path="url(#clip0_633_609)">
<path d="M25.4999 0H6.49999C5.67287 0 5 0.672871 5 1.49999V30.7575C5 31.7981 6.20499 32.3697 7.01205 31.7326L15.6901 24.8815C15.8725 24.7375 16.1272 24.7375 16.3097 24.8815L24.9879 31.7326C25.7944 32.3691 26.9999 31.7988 26.9999 30.7575V1.49999C26.9999 0.672871 26.327 0 25.4999 0ZM25.9999 30.7575C25.9999 30.9607 25.7646 31.0718 25.6074 30.9477L16.9294 24.0966C16.3822 23.6646 15.6178 23.6644 15.0704 24.0966L6.39249 30.9477C6.23499 31.072 6.00006 30.9604 6.00006 30.7575V1.49999C6.00006 1.22431 6.22437 0.999994 6.50005 0.999994H25.4999C25.7756 0.999994 25.9999 1.22431 25.9999 1.49999V30.7575H25.9999Z" fill="#3F4041"/>
<path d="M21.9699 9.37278L18.4646 8.86347L16.8971 5.68718C16.5304 4.94412 15.4702 4.94444 15.1037 5.68718L13.536 8.86347L10.0309 9.37278C9.21088 9.49197 8.88357 10.5003 9.47669 11.0785L12.0131 13.5509L11.4143 17.0419C11.2742 17.8587 12.1322 18.4814 12.8652 18.0961L16.0004 16.4479L19.1356 18.0961C19.8689 18.4817 20.7265 17.8582 20.5865 17.0419L19.9878 13.5509L22.5241 11.0786C23.1174 10.5 22.7895 9.49191 21.9699 9.37278ZM19.1014 13.0183C18.9836 13.1331 18.9298 13.2986 18.9576 13.4608L19.6008 17.2109C15.9424 15.2876 16.176 15.3829 16.0003 15.3829C15.824 15.3829 16.0569 15.2883 12.3999 17.2109L13.0431 13.4608C13.0709 13.2986 13.0172 13.1331 12.8993 13.0183L10.1747 10.3624L13.94 9.81528C14.1028 9.79159 14.2437 9.68935 14.3165 9.54178L15.9987 6.12668C16.0034 6.13293 16.0642 6.25899 17.6843 9.54178C17.7571 9.68935 17.898 9.79166 18.0608 9.81528L21.8261 10.3624L19.1014 13.0183Z" fill="#3F4041"/>
</g>
<defs>
<clipPath id="clip0_633_609">
<rect width="32" height="32" fill="white"/>
</clipPath>
</defs>
</svg>
