<svg width="32" height="32" viewBox="0 0 32 32" fill="none" xmlns="http://www.w3.org/2000/svg">
<g clip-path="url(#clip0_633_173)">
<path d="M29.1948 5.53941L16.1948 0.0394077C16.0703 -0.0132173 15.9297 -0.0132173 15.8052 0.0394077L2.80519 5.53941C2.62019 5.61772 2.5 5.7991 2.5 5.99997V13.8985C2.5 22.126 7.833 29.5102 15.8529 31.9779C15.9488 32.0073 16.051 32.0074 16.147 31.9779C24.0107 29.5583 29.5 22.2895 29.5 13.8985V5.99997C29.5 5.7991 29.3798 5.61772 29.1948 5.53941ZM28.5 13.8985C28.5 21.7618 23.4836 28.6052 16 30.9761C8.51638 28.6052 3.5 21.7618 3.5 13.8985V6.33128L16 1.04285L28.5 6.33128V13.8985Z" fill="#3F4041"/>
<path d="M13.9398 19.6464C14.5261 20.2327 15.4749 20.2326 16.0611 19.6464L22.604 13.1035C23.2124 12.495 23.2124 11.5048 22.604 10.8963C21.9955 10.288 21.0054 10.288 20.3969 10.8963L15.0004 16.2928L12.604 13.8963C11.9955 13.288 11.0054 13.288 10.3969 13.8963C9.78699 14.5062 9.78693 15.4936 10.3969 16.1035L13.9398 19.6464ZM11.1039 14.6035C11.3225 14.385 11.6782 14.3849 11.8969 14.6035L14.6469 17.3535C14.8421 17.5487 15.1587 17.5487 15.3539 17.3535L21.104 11.6035C21.2098 11.4977 21.3506 11.4393 21.5004 11.4393C21.9987 11.4393 22.2477 12.0456 21.8969 12.3964L15.3539 18.9393C15.159 19.1342 14.8418 19.1342 14.6469 18.9393L11.1039 15.3963C10.8849 15.1772 10.8848 14.8227 11.1039 14.6035Z" fill="#3F4041"/>
<path d="M15.7948 3.04406L5.79481 7.54406C5.61538 7.62475 5.5 7.80319 5.5 8V14.4052C5.5 20.9544 9.65325 26.8084 15.8348 28.9719C15.9484 29.0117 16.073 29.0092 16.1857 28.9642L16.7985 28.719C22.6609 26.3741 26.5 20.7034 26.5 14.3897V8C26.5 7.80325 26.3846 7.62475 26.2052 7.54406L16.2052 3.04406C16.0746 2.98531 15.9252 2.98531 15.7948 3.04406ZM25.5 8.32325V14.3897C25.5 20.3258 21.9388 25.5859 16.4271 27.7905L15.9899 27.9654C10.3058 25.8936 6.5 20.4681 6.5 14.4052V8.32325L16 4.04825L25.5 8.32325Z" fill="#3F4041"/>
</g>
<defs>
<clipPath id="clip0_633_173">
<rect width="32" height="32" fill="white"/>
</clipPath>
</defs>
</svg>
