<svg width="242" height="452" viewBox="0 0 242 452" fill="none" xmlns="http://www.w3.org/2000/svg">
<path class="body-line" d="M68.5778 117.868C68.5778 115.64 69.7294 110.404 73.1879 110.181C76.009 109.999 78.2615 113.168 79.3823 115.49C81.8778 120.659 82.8399 128.508 82.7846 134.116C82.7565 136.918 82.459 141.032 81.1977 143.569C79.1148 147.76 77.3284 145.182 76.7235 141.879C75.561 135.521 78.3993 125.083 86.0336 124.811C93.3053 124.552 98.5239 130.89 103.943 134.855C111.098 140.09 115.652 141.859 124.951 139.434C128.991 138.381 133.859 135.919 137.699 134.709C143.236 132.963 148.712 136.277 154.125 135.674C162.81 134.708 168.184 120.384 168.93 115.358C171.072 100.923 170.385 89.3748 159.862 78.7266C154.752 73.5553 149.354 69.8305 142.482 67.575C137.038 65.7883 131.76 63.999 126.311 62.184C124.245 61.4962 108.175 55.242 102.129 45.7885C98.4096 39.972 97.6035 32.7828 100.249 26.3593C105.318 14.0521 120.895 4.20326 134.094 1.77141C150.484 -1.24802 168.386 4.51789 175.882 20.4561C181.151 31.6609 179.982 43.8183 174.22 53.6902C172.018 57.4612 164.17 71.0455 143.917 73.2611C133.04 74.4513 125.873 67.2639 122.986 59.5979C120.441 52.8447 121.193 41.5389 126.461 35.6693C132.852 28.551 145.407 27.0001 152.078 34.5615C157.547 40.7599 156.861 53.0503 148.546 54.9761C137.874 57.447 126.546 41.1853 121.474 34.7095C104.724 13.3218 71.066 36.6743 59.3928 53.1673C54.1062 60.6366 51.3441 71.0464 52.5583 80.2988C53.7661 89.5077 62.9429 92.5874 71.1467 96.5241C80.3707 100.951 89.4178 102.957 96.9587 110.301C102.016 115.226 107.419 124.662 107.948 131.531C108.375 137.082 109.308 156.937 104.85 167.202C102.565 172.465 99.3609 178.276 95.9332 183.081C91.4871 189.314 85.2266 193.775 79.463 198.627C71.2982 205.501 64.9732 208.007 53.9937 206.049C47.735 204.932 40.2403 202.208 31.6257 205.311C27.576 206.769 23.4165 209.503 19.2788 213.397C16.7007 215.824 5.2524 227.688 1.77664 246.89C0.811809 252.218 0.918805 256.179 1.18359 261.513C1.69321 271.786 4.05361 281.683 6.6126 291.867C8.2929 298.552 11.4903 306.22 13.2622 312.915C16.0578 323.477 18.1045 333.962 17.9485 344.599C17.7961 354.938 18.1743 365.352 19.383 375.469C20.2264 382.525 23.7638 400.421 24.5971 402.869C25.7061 406.125 26.8514 408.772 28.1491 411.362C35.8822 426.807 42.9136 426.625 46.0964 425.642C53.0425 423.496 56.5754 415.359 57.8086 411.608C60.3413 403.903 61.5057 387.324 61.3986 380.713C61.298 374.465 62.0035 354.497 62.0035 350.138C62.0026 345.184 62.1549 340.039 62.1549 335.072C62.1549 321.191 61.599 307.777 63.5904 294.231C64.1635 290.332 64.7257 287.18 65.4792 283.301C65.8864 281.204 66.7542 278.378 67.2176 276.284C67.5404 274.827 69.9552 267.972 70.5428 266.093C71.1558 264.131 76.2103 252.799 79.0821 248.811C87.2642 237.447 90.9104 227.503 101.84 215.422C104.832 212.113 123.044 192.99 126.539 190.024C128.857 188.055 136.513 180.792 137.873 176.213C138.959 172.559 139.015 168.911 139.762 165.135C140.669 160.556 141.086 157.401 142.256 152.801C142.861 150.424 146.444 141.16 149.586 145.342C151.882 148.398 148.955 155.528 148.074 158.709C146.533 164.277 144.22 169.639 142.331 175.474C139.504 184.207 136.288 193.73 140.14 203.096C142.177 208.051 145.511 211.933 148.981 216.02C150.939 218.327 154.082 220.423 156.387 222.445C159.559 225.229 171.956 230.069 173.616 230.791C175.656 231.677 186.481 235.275 190.467 236.551C197.431 238.781 205.124 240.673 211.551 244.183C224.092 251.033 238.538 260.347 240.788 275.3C242.472 286.492 233.62 317.46 232.224 322.498C230.856 327.438 229.624 332.587 228.574 337.645C226.124 349.446 223.292 360.005 220.391 371.704C219.41 375.659 216.8 390.754 216.386 393.417C216.157 394.884 213.1 408.493 212.224 413.012C211.44 417.051 205.676 440.307 203.237 446.886C202.187 449.721 197.545 452.993 197.495 447.772C197.45 443.246 198.64 439.287 200.215 434.996C202.601 428.495 208.655 423.348 213.773 418.815C217.319 415.675 219.904 413.174 223.628 406.982C224.82 405 225.185 401.714 225.448 399.253C225.907 394.967 224.849 390.532 223.489 386.547C222.103 382.489 220.44 378.125 218.578 374.298C216.507 370.044 215.025 365.942 212.531 361.068C206.554 349.385 202.934 341.127 196.209 328.498C194.46 325.217 186.612 308.336 178.877 315.942C176.024 318.747 175.803 323.535 175.352 328.203C174.8 333.919 174.589 339.89 174.37 344.6C173.961 353.404 173.282 360.057 172.154 367.819C171.456 372.619 170.963 377.495 170.505 382.324C170.221 385.308 167.773 409.972 167.172 414.389C166.577 418.759 164.547 429.16 158.165 429.35C151.262 429.556 147.319 423.547 143.011 418.599C138.031 412.878 123.93 391.421 121.55 386.251C120.294 383.521 115.037 373.661 113.842 371.259C112.655 368.87 105.27 351.737 102.98 345.821C98.6282 334.581 96.3104 323.918 94.553 310.169C93.6662 303.227 92.8156 294.595 93.3633 286.844C94.2492 274.301 97.258 263.341 98.1992 260.183C101.634 248.664 106.814 240.996 106.285 227.909C106.158 224.771 104.779 220.971 103.413 218.087C102.357 215.853 94.0497 203.855 91.1716 197.26C85.5385 184.353 88.7785 170.601 92.7585 164.912C95.2694 161.323 100.563 155.006 105.454 156.05C112.028 157.452 111.726 165.725 110.12 169.519C107.734 175.159 82.6277 190.191 77.1915 186.773C71.7797 183.37 67.5767 176.423 64.4963 170.969C59.809 162.67 56.8937 155.212 55.9569 145.784C55.6287 142.478 55.6767 138.483 53.8314 135.578C51.8718 132.493 48.0642 127.988 47.6099 124.202C47.1383 120.272 47.1982 114.869 47.4176 110.186C47.6752 104.685 48.173 97.7055 48.6264 93.3478" stroke="#2D2D2D" stroke-width="1.81643" stroke-miterlimit="10"/>
</svg>
