<svg width="421" height="565" viewBox="0 0 421 565" fill="none" xmlns="http://www.w3.org/2000/svg">
<path d="


M8.2199 112.564C11.4396
95.4556 22.8759 86.9334 38.163
82.6717C46.5226 80.3411 55.2491 79.3583
63.6938 77.2924C72.1295 75.2288 79.6974 71.4717
84.6761 63.8264C85.7249 62.2159 86.4053 60.4731 87.0323
58.6851C87.9714 56.0073 88.9638 53.348 89.889 50.6658C93.4882
40.233 101.249 35.717 111.824 35.4976C128.56 35.1504 143.879 40.1014
158.335 48.2202C159.722 48.9989 161.169 51.5128 163.211 48.8412C163.546 48.4026
164.414 49.0343 164.406 49.6077C164.362 52.6547 166.911 53.6036 168.757 55.0736C172.531
58.0792 176.39 60.9769 180.188 63.953C189.514 71.2621 200.287 74.5638 211.919 75.7752C223.021
76.9312 234.133 78.0312 245.28 78.384C253.588 78.6469 261.919 78.0957 270.241 77.9956C276.141 77.9244
281.928 78.8543 287.629 80.3315C300.269 83.6069 308.891 91.7623 315.124 102.88C319.148 110.057 322.741
117.48 327.303 124.352C329.605 127.819 329.568 127.795 331.936 124.498C337.235 117.116 342.47 109.716 346.163
101.329C350.044 92.5169 351.464 83.4414 349.913 73.9073C349.719 72.7109 348.978 70.7296 350.652 70.4901C352.574
70.2149 351.937 72.3505 352.145 73.5077C355.148 90.2548 348.502 104.268 339.549 117.599C337.335 120.897 335.018
124.132 332.617 127.297C331.411 128.888 331.51 129.949 332.943 131.395C340.012 138.531 348.955 141.52 358.494
143.329C370.042 145.518 381.794 145.874 393.425 147.299C398.881 147.967 404.236 149.015 409.374 151.137C416.782
154.198 420.304 159.88 420.831 167.597C421.249 173.722 420.053 179.655 418.079 185.436C417.799 186.258 417.684
187.638 416.364 187.137C415.198 186.695 415.733 185.529 416 184.645C417.655 179.18 418.692 173.64 418.491
167.884C418.248 160.901 414.95 156.109 408.58 153.338C402.136 150.535 395.26 149.866 388.383
149.168C375.787 147.89 363.067 147.477 350.777 144.003C343.573 141.966 336.9 138.896 331.789
133.203C330.29 131.532 329.597 132.261 328.638 133.65C321.693 143.702 317.25 154.742 315.291
166.806C313.965 174.976 314.025 183.201 314.083 191.433C314.136 199.095 314.339 206.76 313.355
214.391C311.815 226.341 306.811 236.838 299.835 246.479C291.125 258.513 279.521 267.221 267.003
274.887C259.992 279.18 252.773 283.199 246.93 289.154C239.795 296.426 235.957 305.039 235.636
315.314C235.311 325.715 237.808 335.573 240.739 345.385C244.261 357.173 249.024 368.537 252.575
380.325C257.037 395.134 259.13 410.225 259.005 425.658C258.975 429.443 258.98 433.229 259.012
437.014C259.018 437.724 258.688 438.681 259.539 439.06C260.358 439.424 260.908 438.607 261.473
438.158C268.507 432.565 275.573 427.01 282.54 421.334C291.198 414.28 299.518 406.843 307.389
398.91C323.228 382.945 333.597 364.072 337.445 341.826C338.701 334.565 339.222 327.176 340.501
319.92C342.285 309.802 346.764 300.498 349.865 290.773C355.069
274.455 359.745 257.982 363.704 241.318C365.605 233.315 365.788
225.214 364.026 217.11C360.937 202.904 364.934 190.165 372.26
178.159C376.075 171.906 380.594 166.219 386.102 161.345C388.043
159.628 390.285 158.431 392.596 157.345C393.391 156.971 394.371
156.832 394.757 157.902C395.093 158.834 394.285 159.251 393.571
159.534C387.89 161.784 383.912 166.1 380.246 170.709C374.128
178.401 369.148 186.757 366.675 196.363C365.129 202.368 364.439
 208.561 365.945 214.638C368.971 226.851 367.081 238.666 363.825
 250.472C358.292 270.539 352.917 290.65 345.466 310.126C342.522
  317.82 341.829 325.948 340.92 334.03C337.996 360.007 327.208
  382.142 308.815 400.72C296.867 412.789 283.71 423.425 270.527
  434.051C267.36 436.603 264.154 439.108 260.899 441.546C259.568
   442.543 258.939 443.678 258.941 445.366C258.946 453.129 259.497
   460.862 259.978 468.604C261.004 485.103 260.5 501.374 252.229
   516.389C248.832 522.558 244.732 528.221 240.001 533.404C229.9
   544.471 218.285 553.929 207.216 563.965C206.621 564.505 205.834
    565.404 205.056 564.485C204.069 563.32 205.245 562.645 206.005
    561.975C215.939 553.22 226.039 544.642 235.291 535.15C243.146
    527.091 249.85 518.197 253.755 507.505C257.476 497.317 258.548
    486.741 257.97 475.955C257.479 466.796 257.053 457.634 256.573
    448.474C256.525 447.563 256.999 446.339 256.137 445.818C255.159
     445.228 254.481 446.423 253.76 446.932C241.548 455.559 228.732
     462.905 214.013 466.466C202.122 469.343 190.057 470.19 177.932
     469.278C163.218 468.171 152.033 460.585 143.176 449.122C132.404
     435.18 122.711 420.48 113.03 405.791C94.9566 378.367 78.322 350.047
      62.8752 321.08C54.5593 305.486 50.5627 288.446 49.7635 270.656C49.3297 261 49.5476
      251.359 49.4198 241.713C49.338 235.523 48.107 229.797 44.5778 224.53C37.8129 214.435 34.8191 203.049 34.1945
       191.047C33.4628 176.984 28.5319 164.328 21.8889 152.164C17.8548 144.777 13.6254 137.456 11.0962
       129.373C6.54964 114.846 2.32288 100.271 2.07201 84.8238C1.96162 78.0366 0.912638 71.2643 0.279095
       64.4862C-1.98302 40.2849 9.62369 19.9725 30.8154 10.1777C37.6798 7.00486 45.0388 5.69005 52.4908
       4.82436C58.9682 4.07196 65.524 3.67681 71.4335 0.44197C72.1542 0.0474826 73.1533 -0.43063 73.5999
        0.725402C74.0181 1.80784 72.9561 2.14635 72.2479 2.55801C67.6296 5.24316 62.4883 6.03815 57.3011
         6.6436C48.5548 7.66427 39.6868 8.40173 31.6539 12.3312C13.6076 21.1573 3.25012 35.3466 2.40874
         55.7957C1.91658 67.7567 4.13097 79.545 4.91749 91.4257C5.28656 96.9981 5.87327 102.544 7.05205
         108.01C7.38209 109.541 7.82742 111.047 8.2199 112.564ZM92.0195 206.46C85.5235 201.418 78.4377
         197.428 70.7698 194.476C76.9425 200.099 84.8759 202.579 92.0327 206.445C92.3469 207.256 93.8994
          207.766 93.0707 208.741C92.4285 209.497 91.5733 208.433 90.8584 208.065C89.6872 207.463 88.5369
           206.82 87.1227 206.056C87.9252 208.336 86.7884 208.34 85.567 207.603C83.3711 206.279 80.393 205.105
            78.6302 205.99C74.5392 208.044 70.4423 205.867 66.2982 207.126C63.0917 208.101 59.3016 206.161
            55.4408 207.19C52.1837 208.058 48.5238 207.881 45.0771 208.442C40.1305 209.248 39.5844 210.282
            41.7952 214.842C46.2314 223.991 52.2047 232.207 57.9603 240.512C65.5256 251.428 76.0938 254.796
            88.8371 250.931C94.4464 249.23 99.9358 247.127 105.564 245.496C110.498 244.067 115.494 244.367
            120.335 246.179C121.164 246.489 122.454 246.756 122.239 247.937C121.984 249.334 120.708 248.663
             119.876 248.574C114.964 248.05 110.286 248.873 105.696 250.65C103.879 251.354 102.987 252.302 102.863
             254.332C102.732 256.466 102.352 258.669 100.438 260.734C99.8323 257.75 101.547 255.506 101.09
             252.866C99.8789 253.466 99.7663 254.517 99.4151 255.452C98.5505 257.751 97.657 260.042 96.6909
             262.301C96.3816 263.024 95.9876 264.243 94.9738 263.73C93.9369 263.204 94.7919 262.229 95.1279
             261.516C96.1325 259.386 97.0615 257.245 97.5345 254.633C95.7412 255.155 95.6816 256.318 95.3728
              257.255C94.5401 259.779 93.5575 262.237 92.2207 264.534C91.7961 265.264 91.4538 266.669 90.2507
              265.892C89.3107 265.285 90.2536 264.385 90.6006 263.658C91.6973 261.36 93.2429 259.22 93.4139
              256.398C91.8766 256.711 91.5969 257.79 91.194 258.709C89.8945 261.676 88.268 264.443 86.1879
              266.922C85.5102 267.73 84.7707 269.371 83.6586 268.533C82.6094 267.742 84.1443 266.763 84.675
               266.012C86.5105 263.415 88.3984 260.868 89.4142 257.511C87.7078 257.769 87.2212 258.908 86.6318
                259.95C84.5095 263.702 81.5015 266.72 78.4723 269.715C78.0372 270.145 77.4839 270.849 76.8118 270.169C76.3422 269.693 76.7966 269.109 77.0783 268.628C77.8708 267.274 79.187 266.242 79.6778 264.375C77.6117 266.342 75.7463 268.139 73.8542 269.906C73.4073 270.324 72.9062 271.128 72.2245 270.483C71.605 269.898 72.2176 269.251 72.6076 268.745C73.7224 267.298 74.8748 265.879 76.0126 264.449C75.8014 264.255 75.59 264.061 75.3788 263.867C73.6675 265.741 71.9778 267.637 70.2311 269.478C69.7369 269.999 68.9736 270.847 68.3351 270.22C67.4761 269.376 68.5639 268.729 69.1038 268.176C70.9857 266.245 72.7713 264.257 73.8167 261.689C71.4409 264.862 68.3255 267.096 64.952 269.017C64.2794 269.4 63.4748 269.858 62.8995 269.12C62.1951 268.217 63.2837 267.792 63.7478 267.345C64.7631 266.365 65.8545 265.446 67.0049 264.628C69.2864 263.008 70.4202 261.889 71.518 259.802C68.4185 262.709 64.8938 264.525 61.3945 266.412C59.0945 267.653 57.9868 265.073 56.1145 265.037C55.8511 265.032 55.844 264.296 56.1879 264.087C57.9518 263.016 56.1537 262.77 55.7662 262.23C55.1661 261.393 53.2287 261.715 53.4744 260.533C53.7708 259.107 55.5715 259.761 56.6571 259.333C57.0165 259.192 57.4264 259.178 58.3572 259.005C56.5616 258.735 55.1411 258.647 54.7611 257.251C54.3693 255.812 56.333 256.41 56.7596 255.399C56.0927 255.399 55.5229 255.442 54.9623 255.388C54.1775 255.313 52.9261 255.715 52.8899 254.552C52.856 253.459 54.1068 253.615 54.9065 253.522C56.9947 253.281 59.0086 252.805 60.8486 251.758C62.6694 250.721 63.4414 249.577 61.3528 247.942C60.4724 247.252 59.8388 246.257 59.0307 245.464C55.9796 242.472 54.3443 238.449 51.4063 234.762C52.103 244.77 51.712 254.284 51.754 263.793C51.8487 285.219 56.8908 305.377 66.9704 324.269C74.8565 339.051 84.0102 353.097 92.2586 367.667C107.616 394.796 125.053 420.556 143.369 445.743C150.599 455.686 159.52 463.273 172.028 465.586C179.698 467.004 187.42 466.857 195.202 466.573C217.929 465.745 237.248 456.567 254.889 443.005C255.812 442.295 256.553 441.515 256.547 440.207C256.501 429.332 256.988 418.451 255.826 407.596C254.182 392.231 249.577 377.625 244.449 363.168C240.398 351.747 236.196 340.383 234.201 328.369C232.743 319.581 232.633 310.828 235.698 302.31C239.326 292.23 246.556 285.199 255.312 279.489C265.602 272.779 276.517 266.958 285.66 258.599C301.793 243.85 311.788 226.16 311.692 203.691C311.656 195.459 311.528 187.222 311.739 178.994C311.972 169.872 313.556 160.957 316.556 152.294C318.992 145.258 322.504 138.808 326.61 132.644C327.561 131.217 328.525 129.853 327.199 128.023C321.46 120.104 317.27 111.266 312.419 102.822C305.687 91.1031 295.798 83.9642 282.465 81.5633C277.975 80.755 273.476 80.3645 268.92 80.3803C253.884 80.4323 238.836 81.0832 223.836 79.3494C216.98 78.5569 210.102 77.9858 203.282 76.852C191.221 74.8468 181.685 68.1147 172.489 60.6863C170.427 59.0203 168.292 57.4441 165.712 55.4587C167.519 60.5168 170.755 64.3981 175.544 67.7206C183.908 73.5242 193.364 77.2949 202.255 82.1184C208.327 85.413 213.676 89.5597 217.16 95.6998C220.713 101.963 221.762 108.89 222.072 115.919C222.519 126.047 221.802 136.158 220.89 146.236C220.148 154.435 218.424 162.48 216.329 170.696C218.822 169.424 221.282 168.122 223.782 166.905C229.107 164.312 229.84 164.162 231.836 165.132C229.291 166.975 226.278 167.602 223.574 168.88C210.69 174.968 199.697 183.747 188.899 192.858C185.913 195.378 184.512 198.15 185.238 201.984C185.413 202.911 185.448 203.864 185.605 204.795C186.777 211.69 188.435 218.5 188.96 225.508C189.244 229.294 189.116 233.085 189.094 237.268C193.48 232.687 198.585 231.43 204.215 232.056C210.322 232.735 216.403 233.604 222.555 233.892C230.905 234.281 238.696 232.896 245.712 227.967C253.653 222.387 259.914 215.253 265.529 207.458C267.697 204.448 270.242 201.775 273.162 199.49C273.928 198.891 275.127 197.881 275.9 198.84C276.879 200.055 275.235 200.507 274.535 201.093C270.603 204.388 267.71 208.518 264.734 212.634C265.981 213.164 267.01 211.088 267.618 212.426C268.153 213.606 266.435 214.079 265.583 214.752C264.659 215.482 263.187 215.39 262.588 216.713C263.494 217.457 264.419 217.006 265.295 216.856C268.192 216.361 271.03 215.653 273.707 214.386C274.269 214.12 275.063 213.566 275.488 214.298C276.009 215.194 275.049 215.606 274.448 215.987C273.813 216.39 273.11 216.692 272.418 216.995C269.085 218.452 265.549 219.187 261.139 219.831C265.548 220.322 268.974 219.961 272.262 218.485C272.901 218.198 273.823 217.486 274.277 218.344C274.791 219.318 273.697 219.772 273.001 220.212C271.52 221.149 269.811 221.531 268.247 221.931C269.197 222.972 271.456 221.089 271.438 222.96C271.424 224.413 269.139 224.011 267.778 224.162C267.685 224.173 267.589 224.164 267.495 224.164C264.838 224.187 262.204 224.061 259.624 223.307C258.665 223.027 257.065 222.511 256.902 223.677C256.697 225.138 258.492 224.895 259.469 224.958C261.731 225.103 264.014 224.92 266.275 225.069C267.144 225.126 268.751 224.203 268.706 226.326C268.668 228.101 267.857 228.721 266.096 228.71C263.327 228.693 260.641 228.244 257.945 227.707C257.247 227.569 256.118 226.817 255.858 228.175C255.661 229.2 256.657 229.559 257.473 229.849C259.117 230.432 260.847 230.188 262.535 230.357C263.582 230.463 264.874 230.648 264.74 232.005C264.622 233.203 263.378 232.567 262.619 232.733C261.854 232.901 259.976 232.469 260.737 233.789C262.172 236.281 260.547 235.961 259.149 236.186C258.582 236.277 258.013 236.479 258.106 237.246C258.357 239.315 256.925 238.623 255.885 238.63C253.921 238.642 252.015 237.414 249.642 238.234C250.21 238.687 250.458 238.976 250.772 239.121C253.522 240.386 252.996 240.344 252.855 242.506C252.643 245.748 251.341 243.524 250.683 243.108C248.353 241.636 246.362 239.744 244.535 237.677C243.962 237.028 243.649 235.959 241.996 236.17C244.177 238.693 246.174 241.018 248.191 243.326C248.621 243.818 249.381 244.303 248.912 244.974C248.305 245.843 247.559 245.154 246.941 244.778C245.193 243.716 243.464 242.624 241.441 241.365C242.262 243.488 244.616 244.12 244.921 246.417C242.492 246.316 241.544 243.875 239.212 243.374C239.497 244.181 239.661 244.698 239.859 245.201C240.197 246.058 240.922 246.983 239.906 247.764C238.742 248.658 237.714 247.908 236.9 247.103C236.022 246.235 235.299 245.211 234.436 244.168C234.363 246.046 236.193 247.352 235.299 249.576C234.913 246.296 231.285 247.883 230.257 245.649C230.144 245.403 229.966 245.393 229.655 245.635C228.428 246.591 228.34 246.583 227.812 245.322C227.081 243.577 226.456 241.789 225.497 239.257C225.087 243.276 227.38 246.204 226.184 250.001C223.943 246.589 223.73 243 222.167 239.264C221.356 241.253 221.846 242.424 221.995 243.607C222.097 244.423 222.377 245.565 221.266 245.734C220.3 245.881 220.436 244.711 220.158 244.056C219.512 242.531 219.98 240.468 217.946 239.304C217.385 241.516 219.047 243.248 218.632 245.613C216.908 244.312 216.581 242.622 216.038 241.094C215.597 239.851 215.087 238.835 213.511 238.904C211.896 238.974 211.626 240.159 211.219 241.359C210.795 242.611 211.231 244.202 209.751 245.326C209.037 244 209.248 242.736 209.429 241.625C209.899 238.741 208.387 237.939 205.935 237.819C201.491 237.601 197.249 237.871 192.829 239.221C189.813 240.143 188.674 241.386 188.321 243.991C186.988 253.829 182.146 261.929 176.037 269.472C170.739 276.014 164.658 281.851 159.525 288.563C151.996 298.407 151.987 308.733 156.303 319.662C156.812 320.951 157.557 321.704 159.036 321.608C163.683 321.307 167.471 323.102 170.807 326.252C172.729 328.067 175.087 327.904 177.033 326.343C179.23 324.582 179.491 321.981 179.094 319.335C178.223 313.53 175.666 308.57 171.56 304.386C170.996 303.811 170.075 303.15 170.823 302.245C171.502 301.424 172.226 302.147 172.744 302.654C178.322 308.129 181.737 314.561 181.253 322.601C181.068 325.67 179.507 328.059 176.671 329.265C173.779 330.495 171.162 329.784 168.899 327.524C166.758 325.385 164.181 324.103 161.061 324.035C157.784 323.963 157.757 323.967 158.442 327.304C158.708 328.601 158.922 329.909 159.146 331.214C160.688 340.225 160.538 349.258 159.196 358.859C165.334 354.42 171.53 354.348 177.87 356.835C180.505 357.868 183.085 359.08 185.592 360.396C191.872 363.692 197.894 367.475 204.444 370.257C212.74 373.781 221.112 376.655 230.24 373.449C230.417 373.387 230.609 373.341 230.795 373.337C231.514 373.32 232.456 372.933 232.761 373.89C233.025 374.719 232.088 374.877 231.576 375.23C230.8 375.766 229.976 376.24 229.241 376.825C220.792 383.541 212.925 390.931 205.043 398.273C190.78 411.559 173.835 417.061 154.68 416.54C147.192 416.336 141.201 413.058 137.081 406.712C134.712 403.063 132.499 399.313 130.242 395.593C128.195 392.218 125.944 389.18 121.781 388.103C120.062 387.659 119.102 386.41 121.011 384.848C122.574 383.569 123.353 381.86 123.639 379.959C124.643 373.268 128.23 368.034 132.885 363.414C138.736 357.609 141.283 357.367 148.244 361.781C152.273 364.336 155.963 362.786 156.858 358.028C158.288 350.435 158.137 342.771 157.443 335.124C157.187 332.311 156.467 329.541 155.97 326.75C155.625 324.812 154.608 324.525 152.922 325.334C151.143 326.187 149.752 327.355 148.925 329.174C148.621 329.844 148.295 330.777 147.326 330.353C146.232 329.874 146.717 328.897 147.005 328.13C147.774 326.088 149.175 324.403 151.151 323.673C154.208 322.544 154.491 320.919 153.372 318.062C148.737 306.229 150.804 295.388 158.829 285.671C163.103 280.495 167.581 275.487 171.952 270.39C178.347 262.934 184.158 255.151 185.767 245.085C186.937 237.765 187.344 230.389 186.4 223.038C185.424 215.446 184.611 207.753 182.619 200.405C181.596 196.631 182.93 194.521 184.684 192.045C191.564 182.329 200.745 175.298 211.177 169.843C213.497 168.63 214.722 167.108 215.355 164.601C219.686 147.447 220.214 129.975 219.55 112.456C219.073 99.844 213.134 90.2974 201.798 84.3903C195.506 81.1113 189.109 78.0306 182.842 74.7041C174.098 70.0623 166.01 64.7081 162.915 54.4695C162.653 53.6034 161.987 53.0642 161.247 52.6084C145.605 42.9576 128.827 37.1759 110.215 37.9644C101.841 38.3192 95.5376 42.0023 92.4562 50.1814C91.2227 53.4558 90.0404 56.7501 88.8815 60.0516C85.5175 69.6357 81.731 78.9904 75.2127 86.9847C70.4472 92.8295 64.6628 97.5863 58.7811 102.173C46.2626 111.937 39.082 124.613 36.9401 140.278C35.0965 153.76 36.5034 167.307 35.9401 180.785C35.5956 189.029 39.7392 192.794 45.6942 196.419C50.0884 199.095 54.595 201.27 59.6711 202.186C56.6167 200.752 53.4015 199.654 50.5268 197.871C47.6797 196.104 44.7254 194.44 42.6504 191.536C51.6837 197.194 61.2239 201.32 71.7087 203.084C65.9035 200.339 60.0244 197.763 54.1815 195.107C50.9962 193.659 47.8648 192.091 44.7277 190.539C44.167 190.262 43.3975 189.954 43.6111 189.115C43.7889 188.417 44.5265 188.684 45.0287 188.517C47.0455 187.844 48.6873 188.789 50.376 189.597C52.5617 190.643 54.7466 191.691 56.9318 192.738C57.0297 192.523 57.1276 192.309 57.2253 192.095C56.3814 191.514 55.5117 190.966 54.7025 190.34C54.0761 189.855 52.7572 189.432 53.352 188.531C54.0716 187.441 55.0169 188.554 55.7633 188.999C56.7362 189.58 57.6062 190.336 58.5871 190.901C62.5661 193.192 66.5708 195.439 70.5658 197.702C67.8646 194.63 64.4072 192.812 60.841 191.131C59.8518 190.665 57.8463 190.477 58.4843 188.979C58.9471 187.892 60.4858 189.167 61.5477 189.356C63.649 189.728 65.8105 191.339 67.7877 190.312C69.2381 189.558 70.0473 189.791 71.0417 190.534C77.3468 195.247 84.3459 198.868 90.8967 203.192C91.5441 203.62 92.2512 203.957 92.9307 204.336C88.0702 198.756 80.975 196.4 75.4725 191.774C77.57 191.198 78.8607 192.632 80.407 193.341C81.2551 193.729 81.9656 194.536 82.9717 194.435C87.3376 193.999 91.0996 195.739 94.0272 198.543C98.8511 203.163 104.004 207.456 108.474 212.487C108.468 212.079 108.335 211.767 108.144 211.497C103.567 205.059 98.54 199.071 91.6502 194.933C91.0575 194.577 89.9601 194.318 90.4933 193.361C90.958 192.527 91.8523 193.031 92.5257 193.357C95.3716 194.734 97.7185 196.795 100.043 198.886C100.668 199.448 101.191 200.145 102.098 200.328C106.476 201.21 110.198 203.327 113.046 206.727C119.267 214.151 123.757 222.564 126.231 231.922C130.428 247.8 128.629 263.653 125.513 279.444C123.679 288.735 121.348 297.897 118.016 306.784C115.979 312.217 116.849 316.877 121.412 320.856C124.549 323.592 127.865 326.127 130.897 328.964C134.904 332.714 139.413 334.337 144.886 333.59C147.21 333.273 149.624 333.276 151.9 334.152C152.605 334.424 153.407 334.791 153.094 335.759C152.841 336.543 152.055 336.535 151.404 336.391C149.347 335.939 147.217 335.671 145.198 336.077C138.837 337.357 133.977 334.686 129.528 330.616C128.269 329.464 126.889 328.445 125.565 327.364C125.917 330.415 127.133 332.595 129.888 333.642C132.452 334.616 134.986 335.67 137.504 336.759C138.258 337.085 139.279 337.591 138.874 338.594C138.388 339.797 137.438 338.966 136.709 338.693C134.938 338.031 133.228 337.16 131.415 336.663C126.419 335.293 123.524 332.066 122.439 327.078C122.114 325.583 121.599 324.186 120.387 323.123C114.323 317.8 113.735 311.728 116.441 304.181C123.482 284.547 127.81 264.355 126.02 243.28C125.309 234.912 123.036 227.006 118.858 219.591C117.971 220.339 119.289 221.716 117.965 221.854C116.91 221.965 116.874 220.743 116.504 220.024C116.375 219.774 116.321 219.486 116.201 219.23C113.76 214.019 110.984 209.052 106.221 205.529C106.381 206.067 106.678 206.508 106.994 206.934C109.306 210.052 111.571 213.202 113.354 216.664C113.642 217.222 114.192 217.903 113.497 218.443C112.997 218.831 112.443 218.329 111.955 218.053C110.196 217.057 108.81 215.645 107.514 214.125C106.968 213.486 106.484 212.803 105.518 212.669C102.484 212.248 99.5542 211.563 97.021 209.649C95.4466 208.46 93.9097 207.172 92.0195 206.46ZM82.0028 71.0148C78.8279 72.8518 76.0761 75.1253 72.7679 76.6259C66.133 79.6357 59.0864 80.9978 51.9899 82.1552C42.5099 83.7012 33.1865 85.6349 24.9541 90.978C16.0769 96.7394 10.9664 104.681 11.0665 115.468C11.1258 121.865 12.5974 127.992 15.1568 133.896C20.7159 146.719 28.8755 158.296 33.2099 171.738C33.3768 170.516 33.4838 169.324 33.3596 168.156C32.5028 160.106 33.1631 152.095 34.0012 144.098C35.8249 126.695 42.6471 111.966 56.7021 100.901C62.2566 96.5289 67.8044 92.0825 72.4435 86.6366C76.4543 81.9282 79.6459 76.7626 82.0028 71.0148ZM220.835 381.037C218.892 381.523 217.734 381.796 216.585 382.101C206.419 384.798 196.197 384.316 185.908 382.871C180.343 382.09 174.837 381.986 169.869 385.63C164.435 389.617 158.962 389.74 153.039 385.914C148.926 383.256 143.927 382.373 139.302 384.987C136.469 386.588 133.719 388.15 130.479 388.641C129.316 388.817 128.659 389.061 129.503 390.4C132.628 395.357 135.521 400.469 138.83 405.298C142.425 410.544 147.444 413.814 153.962 414.113C165.786 414.655 177.134 412.506 187.851 407.441C200.689 401.373 209.633 390.442 220.835 381.037ZM222.158 377.807C212.828 376.754 204.464 373.114 196.284 368.878C190.243 365.749 184.549 361.963 178.187 359.438C175.065 358.199 171.876 357.248 168.525 357.678C164.182 358.237 159.818 359.573 158.241 364.041C156.647 368.556 157.089 373.397 158.834 377.958C160.203 381.535 162.68 382.575 165.693 380.291C170.261 376.828 175.094 376.766 180.237 378.1C189.648 380.542 199.184 381.515 208.891 380.711C213.422 380.336 217.86 379.566 222.158 377.807ZM155.983 364.162C151.965 366.57 148.956 365.101 145.904 363.05C141.913 360.367 139.481 360.578 135.969 363.754C130.895 368.344 126.812 373.564 125.769 380.617C125.561 382.022 125.178 383.402 124.361 384.597C123.655 385.627 123.902 386.159 125.126 386.253C128.752 386.531 132.329 386.467 135.554 384.457C141.896 380.503 148.269 376.671 156.446 378.325C155.263 373.605 154.71 369.149 155.983 364.162ZM148.409 381.394C151.449 382.008 153.912 383.731 156.538 385.152C159.967 387.008 163.499 386.741 166.788 384.749C169.753 382.954 172.564 380.9 176.068 380.14C173.143 379.33 170.489 379.772 168.12 381.558C164.838 384.032 161.638 384.387 157.937 382.118C155.119 380.391 151.862 379.494 148.409 381.394ZM188.229 191.084C188.475 190.958 188.76 190.876 188.963 190.701C196.101 184.536 203.354 178.525 211.36 173.486C212.151 172.988 213.064 172.4 213.012 170.856C203.116 175.959 194.702 182.38 188.229 191.084Z" fill="red"/>
</svg>
