<svg width="640" height="640" viewBox="0 0 640 640" fill="none" xmlns="http://www.w3.org/2000/svg">
<path class="line1" d="M455 121.5C457 132 454.298 144.644 450.5 153C445.5 164 424.297 191.5 420.5 205C418.488 212.155 417 222.468 417 234C417 249 418 261.5 414.5 273C407.5 296 387 315.5 368 325.5C349 335.5 336.031 350.766 338.5 372C341 393.5 356.423 431.601 359.5 447.5C362.5 463 362.5 516 362.5 540.5C362.5 558 353 572 340 586C336.006 590.302 317 606.667 310 613.5" stroke="white" stroke-width="2" stroke-linecap="round"/>
<path class="line2" d="M151.5 280C155 283.5 155 291 155 297C155 309.01 153.5 329 159.5 349.5C165.421 369.729 185.5 403.5 192.5 414C199.5 424.5 224.5 466.5 234.5 480C244.5 493.5 245.696 498.891 263 512C279 524.121 322.5 517 342 506C356.5 497.821 390.114 470.424 397.5 463.5C405.5 456 417.5 447.5 428.5 429.5C444.654 403.067 443.5 382.5 445 372.5C446.782 360.622 462 320 464 312C466 304 470.5 289 470.5 281C470.5 268 466 257.5 469 248C472.884 235.701 482.5 214.5 497.5 208" stroke="white" stroke-width="2" stroke-linecap="round"/>
<path class="line3" d="M113.5 172C112 153.5 122.01 139.797 138 135C158 129 169 130.5 180 123.5C189.711 117.32 191.5 112.5 195 101.5C197.978 92.139 205.155 86.2103 215 86.4999C232 87.0001 251.5 93.5002 259 97.5001C270.871 103.831 282.512 115.89 292.5 120.5C305.5 126.5 328.591 128.975 348 129.5C366.5 130 386.992 128.246 396.5 133C416.5 143 421.5 162 429.5 174C435.831 183.496 445.242 190.886 460.5 194C485 199 516.338 197.269 521.5 209C527 221.5 521.5 230 520 238.5" stroke="white" stroke-width="2" stroke-linecap="round"/>
<path class="line4" d="M190 114C188 122 183 131.5 175 140C167 148.5 160 152 151.5 162C143.099 171.883 139.5 185.5 139 200.5C138.6 212.5 138 225 139.5 238.5C136.5 222 134.5 217 131 209C128.041 202.237 118.584 190.404 115 177.5C112.5 168.5 108.911 156.458 107.5 136C106.5 121.5 102.742 111.033 107 94C108.5 88 112.667 77 124 68.5C126 67 134.157 60.0685 144.5 58C160.5 54.8 171.5 56 177 50.5" stroke="white" stroke-width="2" stroke-linecap="round"/>
<path class="line5" d="M319.5 218.5C321.5 210 323.467 201.5 324.5 186C325 178.5 326.217 161 322.5 151.5C318.181 140.462 315 138 300 130C285 122 274.5 117 271 110.5C268.2 105.3 267 103 267.5 99.5" stroke="white" stroke-width="2" stroke-linecap="round"/>
<path class="line6" d="M231.5 293.5C231.5 301.167 231.5 310.5 229.5 324.5C228.247 333.271 226.5 341.5 221.5 355C218.895 362.033 219.345 367.292 225.5 372.5C233.5 379.269 239.375 384.075 244 385C249 386 250 383 256.5 385.5" stroke="white" stroke-width="2" stroke-linecap="round"/>
<path class="line7" d="M291 294.5C290 304.5 282 316 274 324.5C266.714 332.241 257.764 341.469 256.5 352C255 364.5 261 373 262.5 384.5C263.287 390.532 263.5 402.5 262 408C260.466 413.625 258.5 414.5 254.5 414C250.5 413.5 248.858 408.661 243.5 410C240 410.875 234.998 417.146 232 421C228.5 425.5 230 431 226.5 434.5C222.07 438.93 229 436 233.5 442C238 448 241.5 458 248.5 462.5C255.5 467 266.262 465.177 274.5 464C285 462.5 293.58 458.335 299 455C305.5 451 314.192 442.808 318 439C321 436 331.849 426.369 334 425C339.5 421.5 330.234 428 321 425.5C315.094 423.901 311.423 422.645 305 420C296.5 416.5 284.5 406.5 274.5 406.5C269.926 406.5 265 408 262.5 411.5C260.466 414.348 260 418.5 260.5 422C261.605 429.733 263.589 435.888 272 430C277 426.5 280.033 428.776 288 429.5C299 430.5 307.5 433 313.5 431.5C318 430.375 325.5 427.5 329.5 427.5C332.415 427.5 314.481 432.336 309.5 433C303 433.867 291.995 430.407 282.5 431C274.5 431.5 270.5 438.5 264 437.5C255.5 436.192 254.638 428.681 243 434.5C239.8 436.1 231.5 438.5 226 436.5C230.731 437.473 240.1 435.1 242.5 433.5C245.5 431.5 250.539 429.892 252.5 429.5C257.5 428.5 260.5 428.5 264 431.5" stroke="white" stroke-width="2" stroke-linecap="round"/>
<path class="line8" d="M226.5 373.5C227 374.5 227 375 228 378C229.36 382.08 230.205 383.302 233 384.5C236.5 386 239.5 386.5 242 388.5" stroke="white" stroke-width="2" stroke-linecap="round"/>
<path class="line9" d="M251.5 379.5C252 378 253 376.5 255.5 374.5C257.375 373 262.5 372.5 265 372.5C269 372.5 272.755 376.353 275.5 378C278 379.5 282.3 378.5 283.5 375.5C284.5 373 284.478 369.911 283.5 366C282.375 361.5 281 359 279.5 357C278.3 355.4 275.833 353.167 275 352.5" stroke="white" stroke-width="2" stroke-linecap="round"/>


<path class="eyes" fill-rule="evenodd" clip-rule="evenodd" d="M350.297 218.145C344.238 219.635 338.967 222.803 333.717 225.958C333.307 226.204 332.898 226.45 332.488 226.695C327.562 229.643 322.687 232.678 317.813 235.713C314.662 237.675 311.511 239.637 308.346 241.575C306.109 242.945 305.759 242.781 305.542 240.794C310.085 238.779 314.241 236.097 318.394 233.418C319.691 232.581 320.988 231.744 322.296 230.928C323.293 230.306 324.288 229.68 325.282 229.054L325.287 229.052L325.288 229.051C334.116 223.497 342.937 217.948 353.149 215.105C354.872 214.626 356.627 214.234 358.389 213.924C358.572 213.892 358.774 213.837 358.984 213.779C359.837 213.546 360.808 213.281 361.042 214.413C361.19 215.127 360.581 215.267 359.938 215.415C359.554 215.504 359.157 215.595 358.903 215.814C360.687 215.722 362.455 215.487 364.223 215.251C366.385 214.963 368.549 214.675 370.747 214.648C374.716 214.599 378.58 215.287 382.443 215.975C384.985 216.427 387.526 216.879 390.097 217.122C391.287 217.234 392.159 217.977 393.056 218.742C393.919 219.477 394.806 220.233 396.022 220.467C396.501 220.559 396.994 220.847 397.515 221.151C398.132 221.511 398.79 221.895 399.515 222.008C399.879 222.064 400.442 222.155 400.544 222.391C401.594 224.8 403.653 225.222 405.709 225.644C406.797 225.867 407.884 226.09 408.821 226.607C408.974 226.691 409.136 226.765 409.295 226.837C409.93 227.124 410.523 227.393 410.335 228.271C410.125 229.252 409.177 229.115 408.446 229.009C406.536 228.732 404.629 228.427 402.722 228.121C398.932 227.515 395.142 226.908 391.329 226.522C383.422 225.722 375.479 225.208 367.7 227.676C367.599 227.708 367.497 227.742 367.394 227.776C366.364 228.117 365.278 228.476 364.318 227.314C363.683 226.547 362.873 226.8 362.095 227.042C361.954 227.086 361.814 227.13 361.676 227.167C360.611 227.454 359.547 227.744 358.483 228.035L358.481 228.035C356.353 228.616 354.224 229.197 352.088 229.75C351.963 229.782 351.828 229.826 351.688 229.871C350.976 230.098 350.137 230.367 349.882 229.445C349.63 228.531 350.431 228.354 351.143 228.196C351.313 228.158 351.477 228.122 351.621 228.077C363.226 224.458 374.945 221.555 387.267 222.532C387.921 222.584 388.583 222.539 389.249 222.153C388.389 222.153 387.525 222.187 386.66 222.222C384.783 222.297 382.906 222.371 381.083 222.094C368.202 220.133 356.572 223.953 345.201 229.35C344.93 229.478 344.621 229.668 344.296 229.867C343.181 230.552 341.882 231.349 341.332 230.159C340.808 229.024 342.137 228.56 343.359 228.133C343.76 227.994 344.149 227.858 344.457 227.704C355.043 222.411 366.387 219.781 378.027 218.198C368.679 217.638 359.894 219.984 351.301 223.382C348.631 224.438 346.069 225.765 343.514 227.088C340.086 228.863 336.669 230.632 333.018 231.735C329.514 232.793 326.364 234.413 323.217 236.03C321.624 236.85 320.031 237.669 318.393 238.414C318.262 238.474 318.12 238.555 317.974 238.638C317.41 238.961 316.774 239.324 316.378 238.677C315.81 237.75 316.628 237.388 317.305 237.088C317.423 237.035 317.537 236.984 317.639 236.933C322.526 234.454 327.146 231.512 331.766 228.57C337.75 224.76 343.734 220.949 350.297 218.145ZM335.963 228.368C343.773 222.964 352.005 218.578 361.681 217.674C352.929 220.285 344.716 224.198 336.504 228.11L335.963 228.368Z" fill="white"/>
<path class="eyes" fill-rule="evenodd" clip-rule="evenodd" d="M305.54 240.784L305.542 240.794L305.509 240.809L305.504 240.811L305.538 240.783C304.386 241.161 303.441 241.873 302.496 242.585C301.781 243.124 301.066 243.662 300.261 244.056L300.2 244.086C299.624 244.369 298.947 244.702 298.537 243.93C298.209 243.311 298.776 242.86 299.246 242.56C303.824 239.634 308.211 236.414 312.597 233.195C320.622 227.305 328.648 221.414 337.849 217.318C340.971 215.928 344.162 214.779 347.522 214.149L347.616 214.131C348.308 213.999 349.234 213.823 349.372 214.819C349.473 215.545 348.709 215.72 348.101 215.86C348.048 215.872 347.996 215.884 347.945 215.896C334.867 219.023 324.376 226.737 313.887 234.45L313.886 234.451C312.578 235.413 311.269 236.375 309.956 237.328C308.916 238.083 307.912 238.889 306.908 239.694C306.454 240.059 305.999 240.424 305.54 240.784Z" fill="white"/>
<path class="eyes" fill-rule="evenodd" clip-rule="evenodd" d="M138.195 241.047C138.154 240.257 138.1 239.471 138.032 238.69C139.131 238.663 140.236 238.589 141.341 238.473C143.002 241.867 145.999 244.17 149.694 246.419C154.088 249.095 158.595 251.27 163.671 252.186C162.67 251.716 161.652 251.282 160.634 250.848C158.546 249.959 156.459 249.07 154.527 247.871C154.28 247.718 154.032 247.565 153.783 247.412C151.173 245.806 148.545 244.188 146.65 241.536C155.684 247.194 165.224 251.32 175.709 253.084C171.784 251.228 167.825 249.449 163.867 247.671L163.865 247.67L163.864 247.67C161.968 246.818 160.073 245.967 158.182 245.107C155.36 243.824 152.58 242.447 149.802 241.071L149.8 241.07L149.798 241.069C149.441 240.892 149.085 240.715 148.728 240.539C148.692 240.521 148.656 240.503 148.618 240.485L148.616 240.484C148.071 240.22 147.411 239.899 147.611 239.115C147.734 238.633 148.124 238.611 148.518 238.589C148.695 238.579 148.874 238.569 149.029 238.517C150.881 237.899 152.416 238.645 153.963 239.397C154.1 239.464 154.238 239.531 154.376 239.597C155.927 240.339 157.478 241.082 159.028 241.826L159.042 241.832L159.043 241.833L160.932 242.738L161.024 242.536C161.091 242.389 161.158 242.242 161.225 242.095C160.974 241.922 160.721 241.752 160.468 241.582C159.869 241.181 159.271 240.78 158.702 240.34C158.56 240.23 158.382 240.123 158.199 240.013C157.576 239.638 156.892 239.227 157.352 238.531C157.925 237.663 158.641 238.192 159.286 238.668C159.451 238.79 159.611 238.908 159.763 238.999C160.229 239.277 160.672 239.596 161.114 239.914C161.595 240.26 162.076 240.607 162.587 240.901C165.493 242.574 168.413 244.224 171.333 245.874L171.334 245.875L171.34 245.878C172.416 246.485 173.491 247.093 174.566 247.702C171.865 244.63 168.407 242.812 164.841 241.131C164.624 241.029 164.357 240.94 164.081 240.847C163.098 240.519 161.986 240.148 162.484 238.979C162.8 238.236 163.619 238.596 164.444 238.959C164.827 239.127 165.212 239.296 165.548 239.356C166.223 239.475 166.904 239.723 167.584 239.97C169.019 240.491 170.446 241.009 171.788 240.312C173.238 239.558 174.047 239.791 175.042 240.534C178.877 243.4 182.968 245.863 187.059 248.325C189.695 249.911 192.33 251.498 194.897 253.192C195.341 253.485 195.812 253.736 196.284 253.987C196.501 254.102 196.717 254.217 196.931 254.336C194.083 251.066 190.467 248.904 186.855 246.743C184.302 245.216 181.75 243.689 179.472 241.774C181.024 241.348 182.134 242.022 183.233 242.688C183.619 242.923 184.005 243.156 184.407 243.341C184.675 243.464 184.929 243.628 185.183 243.792C185.734 244.148 186.284 244.504 186.972 244.435C191.338 243.999 195.1 245.739 198.027 248.543C199.549 250 201.103 251.425 202.659 252.851C206.034 255.945 209.414 259.043 212.474 262.487C212.468 262.079 212.335 261.767 212.144 261.497C207.567 255.059 202.54 249.071 195.65 244.933C195.539 244.866 195.411 244.803 195.279 244.738C194.704 244.456 194.06 244.139 194.493 243.361C194.931 242.576 195.749 242.976 196.405 243.298L196.494 243.342L196.526 243.357C199.372 244.734 201.719 246.795 204.043 248.886C204.174 249.003 204.3 249.127 204.426 249.25C204.903 249.717 205.38 250.183 206.098 250.328C210.476 251.21 214.198 253.327 217.046 256.727C223.267 264.151 227.757 272.564 230.231 281.922C231.028 284.937 231.609 287.951 232.005 290.964C231.394 292.186 230.775 293.513 230.148 294.929C230.109 294.38 230.067 293.83 230.02 293.28C229.309 284.912 227.036 277.006 222.858 269.591C222.449 269.936 222.509 270.414 222.562 270.843C222.625 271.345 222.679 271.78 221.965 271.854C221.179 271.937 220.959 271.28 220.745 270.643C220.671 270.424 220.599 270.208 220.504 270.024C220.435 269.891 220.388 269.746 220.34 269.602C220.299 269.476 220.257 269.349 220.201 269.23C217.76 264.019 214.984 259.052 210.221 255.529C210.381 256.067 210.678 256.508 210.994 256.934C213.306 260.052 215.571 263.202 217.354 266.664C217.395 266.743 217.441 266.825 217.488 266.908C217.773 267.412 218.094 267.98 217.497 268.443C217.086 268.762 216.638 268.479 216.22 268.215C216.13 268.158 216.041 268.102 215.955 268.053C214.196 267.057 212.81 265.645 211.514 264.125L211.459 264.06C211.425 264.021 211.393 263.981 211.36 263.942C210.872 263.361 210.392 262.79 209.518 262.669C206.484 262.248 203.554 261.563 201.021 259.649C200.815 259.493 200.61 259.336 200.405 259.179C199.045 258.138 197.675 257.088 196.043 256.468C196.158 256.744 196.414 256.985 196.666 257.222C197.144 257.672 197.608 258.109 197.071 258.741C196.597 259.298 196.008 258.867 195.444 258.454C195.244 258.306 195.046 258.162 194.858 258.065C194.043 257.646 193.239 257.208 192.349 256.722C191.959 256.51 191.553 256.289 191.123 256.056C191.925 258.336 190.788 258.34 189.567 257.603C187.371 256.279 184.393 255.105 182.63 255.99C180.373 257.123 178.115 256.969 175.848 256.814C174.005 256.688 172.156 256.561 170.298 257.126C168.733 257.602 167.029 257.383 165.245 257.154C163.375 256.914 161.417 256.663 159.441 257.19C157.527 257.7 155.473 257.849 153.405 258C151.955 258.105 150.498 258.211 149.077 258.442C144.131 259.248 143.584 260.282 145.795 264.842C149.726 272.95 154.865 280.325 159.989 287.678L159.991 287.681C160.649 288.625 161.306 289.568 161.96 290.512C169.526 301.428 180.094 304.796 192.837 300.931C195.418 300.148 197.975 299.28 200.531 298.412C203.528 297.394 206.526 296.376 209.564 295.496C214.498 294.067 219.494 294.367 224.335 296.179C224.437 296.217 224.547 296.255 224.659 296.294C225.459 296.569 226.428 296.902 226.239 297.937C226.037 299.044 225.194 298.852 224.439 298.681C224.241 298.636 224.049 298.592 223.876 298.574C218.964 298.05 214.286 298.873 209.696 300.65C207.879 301.354 206.987 302.302 206.863 304.332C206.732 306.466 206.352 308.669 204.438 310.734C204.12 309.17 204.44 307.809 204.751 306.488C205.033 305.289 205.308 304.122 205.09 302.866C204.099 303.357 203.843 304.151 203.59 304.935C203.535 305.109 203.479 305.283 203.415 305.452C202.551 307.751 201.657 310.042 200.691 312.301C200.666 312.36 200.64 312.423 200.613 312.488C200.313 313.213 199.904 314.201 198.974 313.73C198.128 313.301 198.541 312.573 198.904 311.933L198.905 311.932C198.987 311.787 199.066 311.647 199.128 311.516C200.133 309.386 201.062 307.245 201.535 304.633C199.994 305.082 199.733 306.003 199.494 306.848C199.455 306.987 199.417 307.123 199.373 307.255C198.54 309.779 197.558 312.237 196.221 314.534C196.146 314.662 196.074 314.812 195.999 314.967C195.649 315.691 195.242 316.532 194.251 315.892C193.521 315.42 193.927 314.772 194.308 314.165C194.417 313.991 194.524 313.82 194.601 313.658C194.859 313.118 195.141 312.586 195.425 312.053C196.348 310.316 197.283 308.557 197.414 306.398C196.042 306.677 195.672 307.567 195.321 308.408C195.279 308.51 195.237 308.61 195.194 308.709C193.895 311.676 192.268 314.443 190.188 316.922C190.053 317.083 189.916 317.277 189.774 317.477C189.201 318.285 188.55 319.204 187.659 318.533C186.867 317.937 187.545 317.233 188.154 316.601C188.353 316.395 188.544 316.197 188.675 316.012C188.777 315.867 188.88 315.723 188.982 315.579L188.986 315.573C190.721 313.125 192.455 310.678 193.414 307.511C191.851 307.747 191.311 308.724 190.778 309.687L190.724 309.785L190.68 309.864L190.632 309.95C188.51 313.702 185.502 316.72 182.472 319.715C182.432 319.755 182.391 319.796 182.349 319.839C181.934 320.263 181.422 320.786 180.812 320.169C180.396 319.747 180.705 319.241 180.976 318.797C180.995 318.766 181.014 318.735 181.033 318.704C181.048 318.679 181.063 318.653 181.078 318.628C181.351 318.162 181.685 317.735 182.027 317.298C182.679 316.465 183.356 315.6 183.678 314.375C183.107 314.919 182.551 315.45 182.005 315.971L182.003 315.972C180.577 317.335 179.222 318.628 177.854 319.906C177.779 319.976 177.703 320.056 177.625 320.139C177.235 320.552 176.792 321.02 176.224 320.483C175.658 319.948 176.121 319.362 176.503 318.879C176.539 318.833 176.574 318.789 176.608 318.745C177.411 317.702 178.234 316.674 179.057 315.646C179.376 315.247 179.695 314.848 180.013 314.449C179.801 314.255 179.59 314.061 179.379 313.867C178.905 314.386 178.433 314.906 177.961 315.427L177.96 315.428L177.956 315.432C176.725 316.79 175.493 318.149 174.231 319.478L174.185 319.527C173.69 320.05 172.954 320.828 172.335 320.22C171.622 319.519 172.251 318.955 172.794 318.466C172.905 318.367 173.012 318.27 173.104 318.176C174.986 316.245 176.771 314.257 177.817 311.689C175.441 314.862 172.326 317.096 168.952 319.017C168.279 319.4 167.475 319.858 166.9 319.12C166.344 318.408 166.903 317.993 167.392 317.631C167.524 317.533 167.65 317.44 167.748 317.345C168.763 316.365 169.854 315.446 171.005 314.628C173.286 313.008 174.42 311.889 175.518 309.802C172.605 312.534 169.316 314.303 166.026 316.072L165.394 316.412C164.01 317.159 163.058 316.522 162.111 315.888C161.484 315.469 160.86 315.051 160.115 315.037C159.851 315.032 159.844 314.296 160.188 314.087C161.462 313.314 160.878 312.97 160.309 312.636C160.09 312.507 159.874 312.38 159.766 312.23C159.514 311.879 159.028 311.732 158.565 311.592C157.925 311.398 157.332 311.219 157.474 310.533C157.67 309.594 158.517 309.557 159.383 309.519C159.832 309.499 160.286 309.479 160.657 309.333C160.885 309.244 161.132 309.205 161.519 309.145C161.744 309.111 162.015 309.068 162.357 309.005C162.212 308.983 162.07 308.963 161.931 308.942C160.34 308.712 159.11 308.534 158.761 307.251C158.538 306.431 159.079 306.272 159.665 306.101C160.108 305.971 160.576 305.834 160.76 305.399C160.548 305.399 160.346 305.403 160.151 305.408H160.15C159.731 305.417 159.344 305.425 158.962 305.388C158.78 305.371 158.573 305.379 158.362 305.387C157.662 305.415 156.918 305.445 156.89 304.552C156.862 303.647 157.715 303.598 158.463 303.556C158.618 303.547 158.77 303.538 158.907 303.522C160.995 303.281 163.009 302.805 164.849 301.758C166.669 300.721 167.441 299.577 165.353 297.942C164.83 297.532 164.394 297.015 163.958 296.496C163.659 296.142 163.359 295.786 163.031 295.464C161.272 293.739 159.983 291.671 158.645 289.523C157.661 287.945 156.65 286.323 155.406 284.762L155.407 284.778C154.515 282.122 152.718 280.091 150.739 278.405C150.141 277.087 149.426 275.795 148.578 274.53C141.813 264.435 138.819 253.049 138.195 241.047ZM174.77 244.476C182.401 247.414 189.456 251.38 195.927 256.388C193.77 255.228 191.543 254.192 189.317 253.155C184.185 250.767 179.053 248.378 174.77 244.476Z" fill="white"/>
<path class="eyes" fill-rule="evenodd" clip-rule="evenodd" d="M317.523 218.138C317.697 217.955 317.859 217.764 318.01 217.564C319.194 218.503 320.026 219.011 320.718 219.156C320.59 219.669 320.46 220.182 320.329 220.696C321.096 220.304 321.861 219.91 322.624 219.516L322.626 219.515C324.341 218.63 326.052 217.747 327.782 216.905C333.107 214.312 333.84 214.162 335.836 215.132C334.195 216.32 332.36 217.003 330.538 217.681C329.534 218.054 328.535 218.426 327.574 218.88C314.69 224.968 303.697 233.747 292.899 242.858C289.913 245.378 288.512 248.15 289.238 251.984C289.332 252.479 289.385 252.982 289.439 253.485C289.485 253.923 289.532 254.362 289.605 254.795C289.957 256.865 290.352 258.927 290.748 260.989C291.67 265.796 292.593 270.604 292.96 275.508C293.184 278.495 293.152 281.485 293.117 284.668V284.679L293.117 284.681C293.108 285.528 293.099 286.39 293.094 287.268C297.48 282.687 302.585 281.43 308.215 282.056C309.722 282.224 311.227 282.403 312.732 282.582C317.327 283.128 321.921 283.675 326.555 283.892C334.905 284.281 342.696 282.896 349.712 277.967C357.653 272.387 363.914 265.253 369.529 257.458C371.697 254.448 374.242 251.775 377.162 249.49L377.26 249.413C378.027 248.811 379.159 247.921 379.9 248.84C380.653 249.775 379.854 250.258 379.127 250.698C378.908 250.83 378.697 250.958 378.535 251.093C374.814 254.211 372.024 258.077 369.213 261.971L369.125 262.093C368.995 262.273 368.864 262.454 368.734 262.634C369.312 262.88 369.843 262.565 370.307 262.291C370.845 261.973 371.292 261.708 371.618 262.426C372.015 263.301 371.173 263.787 370.364 264.254C370.081 264.417 369.803 264.578 369.583 264.752C369.24 265.023 368.822 265.18 368.401 265.339C367.687 265.608 366.965 265.881 366.588 266.713C367.317 267.311 368.058 267.137 368.776 266.967C368.951 266.926 369.124 266.885 369.295 266.856C372.192 266.361 375.03 265.653 377.707 264.386C377.782 264.35 377.861 264.31 377.943 264.268C378.474 263.995 379.12 263.664 379.488 264.298C379.947 265.088 379.255 265.502 378.673 265.85C378.636 265.872 378.599 265.894 378.563 265.916C378.523 265.94 378.485 265.964 378.448 265.987C377.84 266.373 377.17 266.666 376.507 266.956L376.418 266.995C373.085 268.452 369.549 269.187 365.139 269.831C369.548 270.322 372.974 269.961 376.262 268.485C376.372 268.435 376.491 268.373 376.615 268.308C377.206 267.999 377.902 267.634 378.277 268.344C378.724 269.191 377.956 269.644 377.29 270.038C377.19 270.097 377.092 270.155 377.001 270.212C375.641 271.072 374.09 271.465 372.634 271.833L372.372 271.899L372.247 271.931C372.67 272.394 373.352 272.278 373.978 272.172C374.757 272.039 375.448 271.922 375.438 272.96C375.427 274.078 374.073 274.098 372.829 274.116C372.456 274.122 372.092 274.127 371.778 274.162C371.714 274.17 371.648 274.168 371.583 274.166L371.534 274.164L371.521 274.164L371.495 274.164C368.838 274.187 366.204 274.061 363.624 273.307L363.517 273.276C362.55 272.992 361.059 272.554 360.902 273.677C360.729 274.912 361.984 274.929 362.967 274.943C363.147 274.946 363.318 274.948 363.469 274.958C364.593 275.03 365.722 275.021 366.852 275.012C367.995 275.003 369.138 274.994 370.275 275.069C370.48 275.082 370.727 275.041 370.983 274.998C371.811 274.86 372.74 274.704 372.706 276.326C372.668 278.101 371.857 278.721 370.096 278.71C367.327 278.693 364.641 278.244 361.945 277.707C361.802 277.679 361.641 277.625 361.472 277.568C360.82 277.349 360.065 277.096 359.858 278.175C359.661 279.2 360.657 279.559 361.473 279.849C362.569 280.238 363.704 280.259 364.839 280.28C365.406 280.29 365.973 280.301 366.535 280.357C367.582 280.463 368.874 280.648 368.74 282.005C368.658 282.838 368.031 282.784 367.402 282.73C367.126 282.706 366.85 282.682 366.619 282.733C366.423 282.776 366.154 282.78 365.876 282.784C365.065 282.795 364.171 282.807 364.737 283.789C365.951 285.897 364.975 285.993 363.8 286.108C363.585 286.13 363.365 286.151 363.149 286.186C362.582 286.277 362.013 286.479 362.106 287.246C362.306 288.895 361.437 288.79 360.55 288.683C360.324 288.656 360.096 288.629 359.885 288.63C359.163 288.634 358.448 288.471 357.716 288.304C356.456 288.016 355.142 287.716 353.642 288.234C353.848 288.398 354.012 288.541 354.152 288.663C354.399 288.878 354.572 289.029 354.772 289.121C357.095 290.19 357.08 290.326 356.935 291.646L356.935 291.647L356.934 291.649C356.908 291.89 356.877 292.172 356.855 292.506C356.688 295.067 355.84 294.217 355.167 293.542C354.988 293.362 354.821 293.195 354.683 293.108C352.353 291.636 350.362 289.744 348.535 287.677C348.421 287.548 348.317 287.402 348.211 287.253C347.785 286.653 347.32 286.001 345.996 286.17C346.594 286.862 347.178 287.539 347.753 288.205L347.757 288.209L347.764 288.217L347.775 288.231L347.781 288.237C349.291 289.987 350.736 291.661 352.191 293.326C352.274 293.421 352.368 293.515 352.464 293.61C352.868 294.011 353.291 294.432 352.912 294.974C352.387 295.726 351.758 295.312 351.198 294.943L351.148 294.91L351.104 294.882L351.05 294.846C351.013 294.823 350.977 294.8 350.941 294.778C349.691 294.018 348.45 293.243 347.105 292.403C346.569 292.068 346.017 291.723 345.441 291.365C345.81 292.319 346.488 292.971 347.151 293.61C347.963 294.392 348.753 295.152 348.921 296.417C347.619 296.363 346.742 295.636 345.85 294.896C345.078 294.256 344.294 293.606 343.212 293.374C343.313 293.659 343.398 293.907 343.475 294.132L343.476 294.135C343.617 294.545 343.731 294.876 343.859 295.201C343.918 295.351 343.989 295.503 344.061 295.656C344.398 296.377 344.744 297.12 343.906 297.764C342.742 298.658 341.714 297.908 340.9 297.103C340.294 296.504 339.762 295.831 339.207 295.128C338.958 294.813 338.704 294.491 338.436 294.168C338.406 294.934 338.693 295.605 338.983 296.282C339.403 297.264 339.828 298.259 339.299 299.576C339.083 297.741 337.853 297.429 336.63 297.12C335.667 296.876 334.71 296.633 334.257 295.649C334.144 295.403 333.966 295.393 333.655 295.635C332.428 296.591 332.34 296.583 331.812 295.322C331.316 294.137 330.868 292.932 330.332 291.488C330.078 290.806 329.805 290.07 329.497 289.257C329.315 291.043 329.667 292.614 330.009 294.142C330.436 296.051 330.848 297.892 330.184 300.001C328.809 297.907 328.197 295.747 327.569 293.527C327.173 292.129 326.771 290.707 326.167 289.264C325.511 290.872 325.706 291.946 325.883 292.923C325.925 293.154 325.967 293.381 325.995 293.607L325.999 293.641C326.003 293.669 326.007 293.697 326.011 293.726L326.028 293.848C326.138 294.632 326.271 295.581 325.266 295.734C324.565 295.841 324.444 295.254 324.325 294.674C324.28 294.455 324.234 294.236 324.158 294.056C323.956 293.58 323.863 293.051 323.769 292.513C323.56 291.33 323.345 290.104 321.946 289.304C321.659 290.434 321.953 291.439 322.254 292.467C322.541 293.451 322.835 294.456 322.632 295.613C321.167 294.507 320.711 293.121 320.273 291.791C320.196 291.557 320.119 291.323 320.038 291.094C319.597 289.851 319.087 288.835 317.511 288.904C316.012 288.969 315.672 289.995 315.305 291.102C315.277 291.187 315.248 291.273 315.219 291.359C315.086 291.751 315.038 292.177 314.988 292.611C314.88 293.562 314.767 294.554 313.751 295.326C313.041 294.007 313.246 292.75 313.426 291.643L313.429 291.625C313.899 288.741 312.387 287.939 309.935 287.819C305.491 287.601 301.249 287.871 296.829 289.221C293.813 290.143 292.674 291.386 292.321 293.991C292.282 294.278 292.24 294.563 292.196 294.847C291.537 293.634 290.978 292.362 290.412 291.074L290.346 290.922C291.043 284.973 291.165 278.997 290.4 273.038C290.278 272.087 290.158 271.135 290.038 270.182L290.037 270.174L290.037 270.172C289.201 263.518 288.361 256.829 286.619 250.405C286.592 250.304 286.566 250.203 286.542 250.104C286.443 250.256 286.367 250.452 286.29 250.65C286.075 251.2 285.854 251.765 285.14 251.439C284.163 250.993 284.584 249.965 284.986 249.2C286.111 247.063 286.881 244.791 287.652 242.518L287.652 242.517C287.881 241.842 288.111 241.166 288.349 240.493C291.325 232.094 297.064 225.801 303.87 220.343C304.266 220.025 304.727 219.782 305.182 219.543L305.325 219.467C305.383 219.436 305.442 219.404 305.501 219.371C306.03 219.078 306.624 218.75 307.035 219.486C307.442 220.215 306.822 220.718 306.286 221.116C305.982 221.342 305.661 221.548 305.341 221.754C305.026 221.957 304.71 222.16 304.409 222.383C300.001 225.643 296.39 229.625 293.809 234.554C294.626 233.726 295.433 232.888 296.24 232.05C298.03 230.19 299.82 228.33 301.719 226.589C305.708 222.932 310.291 220.086 315.085 217.6C315.185 217.548 315.293 217.486 315.406 217.422C316.12 217.013 317.036 216.489 317.485 217.592C317.571 217.804 317.576 217.983 317.523 218.138ZM315.177 219.843C312.075 221.465 309.084 223.226 306.231 225.156C309.216 222.906 312.412 220.902 315.863 219.196C315.992 219.132 316.143 219.07 316.299 219.005C316.481 218.931 316.672 218.852 316.847 218.763C316.366 219.155 315.813 219.511 315.177 219.843ZM292.474 240.972C292.391 241.008 292.308 241.043 292.229 241.084C298.702 232.38 307.116 225.959 317.012 220.856C317.064 222.4 316.151 222.988 315.36 223.486C307.354 228.525 300.101 234.536 292.963 240.701C292.825 240.82 292.65 240.896 292.474 240.972Z" fill="white"/>
<path class="eyes" d="M275.133 242.097C274.649 244.759 274.439 247.44 274.229 250.114C274.002 253.004 273.776 255.887 273.206 258.731C273.167 258.924 273.154 259.147 273.14 259.376C273.093 260.153 273.043 260.985 271.989 260.837C270.817 260.672 271.087 259.532 271.285 258.695C271.305 258.61 271.325 258.527 271.342 258.449C271.958 255.648 271.986 252.81 272.014 249.972C272.037 247.609 272.061 245.245 272.423 242.902C273.131 238.317 275.217 234.511 278.449 231.277C278.514 231.212 278.58 231.142 278.648 231.07C279.171 230.518 279.791 229.861 280.553 230.678C281.164 231.332 280.592 231.913 280.109 232.404C280.046 232.468 279.984 232.53 279.927 232.591C277.606 235.06 277.459 238.182 277.314 241.251C277.307 241.381 277.301 241.51 277.295 241.64C277.222 243.151 277.203 244.665 277.184 246.179C277.146 249.204 277.108 252.228 276.636 255.232C276.519 255.977 276.342 256.716 276.152 257.447C276.134 257.515 276.117 257.586 276.1 257.659C275.956 258.257 275.785 258.965 275.065 258.861C274.087 258.719 274.237 257.848 274.359 257.134C274.366 257.094 274.372 257.054 274.379 257.015C275.211 252.063 275.426 247.076 275.133 242.097Z" fill="white"/>
<path class="eyes" d="M281.032 250.007C282.453 240.254 286.934 232.186 294.172 225.605C294.235 225.548 294.3 225.485 294.366 225.421C294.796 225.005 295.298 224.519 295.835 225.005C296.581 225.679 295.945 226.261 295.453 226.71C295.396 226.763 295.341 226.813 295.29 226.862C292.208 229.817 289.651 233.168 287.373 236.773C284.793 240.858 283.745 245.425 282.82 250.058C282.789 250.213 282.768 250.389 282.747 250.571C282.662 251.299 282.565 252.121 281.751 252.07C280.937 252.019 280.984 251.347 281.029 250.7C281.046 250.454 281.063 250.211 281.032 250.007Z" fill="white"/>
<path class="eyes" d="M278.682 246.881C278.405 249.125 278.126 251.378 277.686 253.598C277.692 253.683 277.687 253.785 277.681 253.895C277.657 254.347 277.626 254.931 278.374 254.995C279.187 255.066 279.322 254.271 279.426 253.656C279.43 253.631 279.435 253.606 279.439 253.581C279.538 253.004 279.642 252.426 279.745 251.849C280.092 249.918 280.439 247.986 280.623 246.039C281.176 240.213 282.522 234.709 286.151 229.938C286.289 229.756 286.475 229.56 286.668 229.354C287.395 228.583 288.241 227.683 287.204 226.961C286.346 226.363 285.755 227.314 285.206 228.197C285.019 228.498 284.836 228.792 284.65 229.013C280.244 234.248 279.468 240.528 278.682 246.881Z" fill="white"/>

<circle class="circle" cx="377" cy="360" r="5" fill="#C3B4F2"/>
<circle class="circle" cx="236" cy="154" r="12" fill="white" fill-opacity="0.3"/>
<circle class="circle" cx="236" cy="154" r="5" fill="#C3B4F2"/>
<circle class="circle" cx="377" cy="360" r="12" fill="white" fill-opacity="0.3"/>
<circle class="circle" cx="253" cy="309" r="12" fill="white" fill-opacity="0.3"/>
<circle class="circle" cx="253" cy="309" r="5" fill="#C3B4F2"/>



</svg>

