<svg width="60" height="61" viewBox="0 0 60 61"  xmlns="http://www.w3.org/2000/svg">
<path d="M31.6313 11.9876C35.6021 14.9713 38.4119 19.9518 41.4708 17.2196C41.4708 17.2196 40.7855 17.2568 38.3088 15.1373C35.387 12.635 34.3045 10.5899 30.2091 8.68186C26.8687 7.1265 22.934 8.59097 22.9438 8.61045C24.2545 8.49676 27.2841 8.71982 31.6313 11.9876ZM29.304 2.24344C17.344 2.53727 7.25548 10.3766 3.61883 21.1814C6.91009 22.3734 11.0599 22.666 13.3439 20.9608C22.4906 14.1311 30.2398 14.2391 30.2398 14.2391C26.1326 8.84687 15.5194 13.9649 15.5194 13.9649C21.6587 5.04347 28.1886 6.00314 32.2531 8.00956C34.7306 9.23263 37.0273 11.6428 37.8468 12.4902C38.5278 13.1946 39.2669 13.9338 39.6928 14.2784C42.5578 16.5989 43.9663 14.7541 43.9663 14.7541C43.9663 14.7541 39.7321 9.26471 37.4693 6.70934C35.9053 4.94137 33.1615 2.87032 29.304 2.24344ZM24.9431 57.434C26.5829 57.7349 28.273 57.8937 29.9998 57.8937C40.8119 57.8937 50.1836 51.7282 54.7914 42.7206C51.6586 41.0439 47.4575 40.1503 44.9183 41.5762C34.9659 47.1676 27.2953 46.059 27.2953 46.059C30.6714 51.9363 41.8584 48.2322 41.8584 48.2322C34.6162 56.286 28.2654 54.4907 24.4942 51.9768C22.1957 50.4433 20.2295 47.7573 19.5259 46.8096C18.9417 46.0244 18.3043 45.1955 17.9261 44.7985C15.3858 42.1275 13.7507 43.7751 13.7507 43.7751C13.7507 43.7751 17.24 49.7653 19.1531 52.5917C20.261 54.2279 22.1592 56.1835 24.9431 57.434ZM38.3452 23.9915C39.1092 24.067 39.7894 23.5084 39.8645 22.7436C39.9399 21.9796 39.3806 21.299 38.6159 21.2236C37.853 21.1493 37.172 21.7079 37.0973 22.4723C37.0222 23.2355 37.5808 23.9165 38.3452 23.9915ZM39.503 28.7151C39.9169 24.4913 36.9561 23.0912 32.6343 27.216C32.5159 27.3077 32.4256 27.3972 32.3672 27.4755C35.4257 26.4318 36.535 26.3828 36.3217 28.5646C35.9201 32.6458 32.7797 37.3838 31.6374 38.9901C31.3791 39.3532 31.2228 39.5552 31.2228 39.5552C31.2228 39.5552 38.9294 34.5708 39.503 28.7151ZM30.7776 42.6938C30.8573 42.7411 30.907 42.7696 30.9226 42.7758C30.7591 42.5683 25.5057 35.8548 24.8453 29.1182C24.5509 26.1316 27.6136 27.0081 31.7963 28.4318C25.6876 22.3636 19.9116 23.4279 20.4919 29.3231C21.2205 36.7439 29.5563 41.966 30.7776 42.6938ZM33.8031 52.5823C32.4885 52.526 29.5133 51.9139 25.6233 48.112C22.0719 44.6396 19.9286 39.3387 16.5435 41.6527C16.5435 41.6527 17.2282 41.704 19.4096 44.1262C21.9839 46.9843 22.793 49.1532 26.6078 51.5734C29.7191 53.5477 33.81 52.6039 33.8031 52.5823ZM23.0052 19.299C21.9597 19.4008 21.1957 20.3315 21.2982 21.3773C21.4003 22.4228 22.3311 23.1871 23.3768 23.0847C24.422 22.9818 25.186 22.051 25.0838 21.0059C24.9813 19.9602 24.051 19.1959 23.0052 19.299ZM29.9998 0.0644531C46.5686 0.0644531 60 13.4958 60 30.0645C60 46.6324 46.5686 60.0645 29.9998 60.0645C13.4316 60.0645 0 46.6324 0 30.0645C0 13.4958 13.4316 0.0644531 29.9998 0.0644531Z"/>
</svg>
