<svg xmlns="http://www.w3.org/2000/svg" style="display:none;">

    <symbol id="logo" viewBox="0 0 60 60"  xmlns="http://www.w3.org/2000/svg">
        <path d="M31.6313 11.9876C35.6021 14.9713 38.4119 19.9518 41.4708 17.2196C41.4708 17.2196 40.7855 17.2568 38.3088 15.1373C35.387 12.635 34.3045 10.5899 30.2091 8.68186C26.8687 7.1265 22.934 8.59097 22.9438 8.61045C24.2545 8.49676 27.2841 8.71982 31.6313 11.9876ZM29.304 2.24344C17.344 2.53727 7.25548 10.3766 3.61883 21.1814C6.91009 22.3734 11.0599 22.666 13.3439 20.9608C22.4906 14.1311 30.2398 14.2391 30.2398 14.2391C26.1326 8.84687 15.5194 13.9649 15.5194 13.9649C21.6587 5.04347 28.1886 6.00314 32.2531 8.00956C34.7306 9.23263 37.0273 11.6428 37.8468 12.4902C38.5278 13.1946 39.2669 13.9338 39.6928 14.2784C42.5578 16.5989 43.9663 14.7541 43.9663 14.7541C43.9663 14.7541 39.7321 9.26471 37.4693 6.70934C35.9053 4.94137 33.1615 2.87032 29.304 2.24344ZM24.9431 57.434C26.5829 57.7349 28.273 57.8937 29.9998 57.8937C40.8119 57.8937 50.1836 51.7282 54.7914 42.7206C51.6586 41.0439 47.4575 40.1503 44.9183 41.5762C34.9659 47.1676 27.2953 46.059 27.2953 46.059C30.6714 51.9363 41.8584 48.2322 41.8584 48.2322C34.6162 56.286 28.2654 54.4907 24.4942 51.9768C22.1957 50.4433 20.2295 47.7573 19.5259 46.8096C18.9417 46.0244 18.3043 45.1955 17.9261 44.7985C15.3858 42.1275 13.7507 43.7751 13.7507 43.7751C13.7507 43.7751 17.24 49.7653 19.1531 52.5917C20.261 54.2279 22.1592 56.1835 24.9431 57.434ZM38.3452 23.9915C39.1092 24.067 39.7894 23.5084 39.8645 22.7436C39.9399 21.9796 39.3806 21.299 38.6159 21.2236C37.853 21.1493 37.172 21.7079 37.0973 22.4723C37.0222 23.2355 37.5808 23.9165 38.3452 23.9915ZM39.503 28.7151C39.9169 24.4913 36.9561 23.0912 32.6343 27.216C32.5159 27.3077 32.4256 27.3972 32.3672 27.4755C35.4257 26.4318 36.535 26.3828 36.3217 28.5646C35.9201 32.6458 32.7797 37.3838 31.6374 38.9901C31.3791 39.3532 31.2228 39.5552 31.2228 39.5552C31.2228 39.5552 38.9294 34.5708 39.503 28.7151ZM30.7776 42.6938C30.8573 42.7411 30.907 42.7696 30.9226 42.7758C30.7591 42.5683 25.5057 35.8548 24.8453 29.1182C24.5509 26.1316 27.6136 27.0081 31.7963 28.4318C25.6876 22.3636 19.9116 23.4279 20.4919 29.3231C21.2205 36.7439 29.5563 41.966 30.7776 42.6938ZM33.8031 52.5823C32.4885 52.526 29.5133 51.9139 25.6233 48.112C22.0719 44.6396 19.9286 39.3387 16.5435 41.6527C16.5435 41.6527 17.2282 41.704 19.4096 44.1262C21.9839 46.9843 22.793 49.1532 26.6078 51.5734C29.7191 53.5477 33.81 52.6039 33.8031 52.5823ZM23.0052 19.299C21.9597 19.4008 21.1957 20.3315 21.2982 21.3773C21.4003 22.4228 22.3311 23.1871 23.3768 23.0847C24.422 22.9818 25.186 22.051 25.0838 21.0059C24.9813 19.9602 24.051 19.1959 23.0052 19.299ZM29.9998 0.0644531C46.5686 0.0644531 60 13.4958 60 30.0645C60 46.6324 46.5686 60.0645 29.9998 60.0645C13.4316 60.0645 0 46.6324 0 30.0645C0 13.4958 13.4316 0.0644531 29.9998 0.0644531Z"/>
    </symbol>

    <symbol id="call" width="24" height="24" viewBox="0 0 24 24">
        <mask id="mask0_384_2014" style="mask-type:alpha" maskUnits="userSpaceOnUse" x="0" y="0" width="24" height="24">
            <rect width="24" height="24" fill="#D9D9D9"/>
        </mask>
        <g mask="url(#mask0_384_2014)">
            <path d="M19.95 21C17.8667 21 15.8083 20.5458 13.775 19.6375C11.7417 18.7292 9.89167 17.4417 8.225 15.775C6.55833 14.1083 5.27083 12.2583 4.3625 10.225C3.45417 8.19167 3 6.13333 3 4.05C3 3.75 3.1 3.5 3.3 3.3C3.5 3.1 3.75 3 4.05 3H8.1C8.33333 3 8.54167 3.07917 8.725 3.2375C8.90833 3.39583 9.01667 3.58333 9.05 3.8L9.7 7.3C9.73333 7.56667 9.725 7.79167 9.675 7.975C9.625 8.15833 9.53333 8.31667 9.4 8.45L6.975 10.9C7.30833 11.5167 7.70417 12.1125 8.1625 12.6875C8.62083 13.2625 9.125 13.8167 9.675 14.35C10.1917 14.8667 10.7333 15.3458 11.3 15.7875C11.8667 16.2292 12.4667 16.6333 13.1 17L15.45 14.65C15.6 14.5 15.7958 14.3875 16.0375 14.3125C16.2792 14.2375 16.5167 14.2167 16.75 14.25L20.2 14.95C20.4333 15.0167 20.625 15.1375 20.775 15.3125C20.925 15.4875 21 15.6833 21 15.9V19.95C21 20.25 20.9 20.5 20.7 20.7C20.5 20.9 20.25 21 19.95 21ZM6.025 9L7.675 7.35L7.25 5H5.025C5.10833 5.68333 5.225 6.35833 5.375 7.025C5.525 7.69167 5.74167 8.35 6.025 9ZM14.975 17.95C15.625 18.2333 16.2875 18.4583 16.9625 18.625C17.6375 18.7917 18.3167 18.9 19 18.95V16.75L16.65 16.275L14.975 17.95Z"/>
        </g>
    </symbol>

    <!-- Символ для location_on -->
    <symbol id="location_on" width="24" height="24" viewBox="0 0 24 24">
        <mask id="mask0_384_2009" style="mask-type:alpha" maskUnits="userSpaceOnUse" x="0" y="0" width="24" height="24">
            <rect width="24" height="24"/>
        </mask>
        <g mask="url(#mask0_384_2009)">
            <path d="M12 12C12.55 12 13.0208 11.8042 13.4125 11.4125C13.8042 11.0208 14 10.55 14 10C14 9.45 13.8042 8.97917 13.4125 8.5875C13.0208 8.19583 12.55 8 12 8C11.45 8 10.9792 8.19583 10.5875 8.5875C10.1958 8.97917 10 9.45 10 10C10 10.55 10.1958 11.0208 10.5875 11.4125C10.9792 11.8042 11.45 12 12 12ZM12 19.35C14.0333 17.4833 15.5417 15.7875 16.525 14.2625C17.5083 12.7375 18 11.3833 18 10.2C18 8.38333 17.4208 6.89583 16.2625 5.7375C15.1042 4.57917 13.6833 4 12 4C10.3167 4 8.89583 4.57917 7.7375 5.7375C6.57917 6.89583 6 8.38333 6 10.2C6 11.3833 6.49167 12.7375 7.475 14.2625C8.45833 15.7875 9.96667 17.4833 12 19.35ZM12 22C9.31667 19.7167 7.3125 17.5958 5.9875 15.6375C4.6625 13.6792 4 11.8667 4 10.2C4 7.7 4.80417 5.70833 6.4125 4.225C8.02083 2.74167 9.88333 2 12 2C14.1167 2 15.9792 2.74167 17.5875 4.225C19.1958 5.70833 20 7.7 20 10.2C20 11.8667 19.3375 13.6792 18.0125 15.6375C16.6875 17.5958 14.6833 19.7167 12 22Z"/>
        </g>
    </symbol>

    <symbol id="arrow" width="24" height="24" viewBox="0 0 24 24" fill="none" xmlns="http://www.w3.org/2000/svg">
        <mask id="mask0_261_10419" style="mask-type:alpha" maskUnits="userSpaceOnUse" x="0" y="0" width="24" height="24">
            <rect x="24" width="24" height="24" transform="rotate(90 24 0)" fill="#D9D9D9"/>
        </mask>
        <g mask="url(#mask0_261_10419)">
            <path d="M8.6 12L14.6 6L16 7.4L11.4 12L16 16.6L14.6 18L8.6 12Z" fill="#3F4041"/>
        </g>
    </symbol>


    <symbol id="arrow-slider" viewBox="0 0 24 24" xmlns="http://www.w3.org/2000/svg">
        <path d="M20.3635 11.293C20.5509 11.4806 20.6562 11.7349 20.6562 12C20.6562 12.2652 20.5509 12.5195 20.3635 12.707L14.7065 18.364C14.6142 18.4595 14.5039 18.5357 14.3819 18.5881C14.2599 18.6405 14.1286 18.6681 13.9959 18.6693C13.8631 18.6704 13.7314 18.6451 13.6085 18.5948C13.4856 18.5446 13.374 18.4703 13.2801 18.3764C13.1862 18.2825 13.1119 18.1709 13.0616 18.048C13.0114 17.9251 12.9861 17.7934 12.9872 17.6606C12.9884 17.5278 13.016 17.3966 13.0684 17.2746C13.1208 17.1526 13.197 17.0423 13.2925 16.95L17.2425 13L3.99946 13C3.73425 13 3.47989 12.8947 3.29236 12.7071C3.10482 12.5196 2.99946 12.2652 2.99946 12C2.99946 11.7348 3.10482 11.4805 3.29236 11.2929C3.47989 11.1054 3.73425 11 3.99946 11L17.2425 11L13.2925 7.05002C13.1103 6.86142 13.0095 6.60882 13.0118 6.34662C13.0141 6.08443 13.1192 5.83361 13.3046 5.64821C13.4901 5.4628 13.7409 5.35763 14.0031 5.35535C14.2653 5.35307 14.5179 5.45386 14.7065 5.63602L20.3635 11.293Z"/>
    </symbol>


    <symbol id="circle" viewBox="0 0 271 271" fill="none" xmlns="http://www.w3.org/2000/svg">
        <path d="M230 61.5376C270.861 113.717 261.686 189.141 209.506 230.001C157.327 270.862 81.9036 261.687 41.0428 209.507C0.182114 157.328 9.35753 81.9044 61.5367 41.0436C113.716 0.182897 189.14 9.35834 230 61.5376Z" stroke="#C3B4F2" stroke-opacity="0.15"/>
    </symbol>

    <symbol id="quotes" width="120" height="100" viewBox="0 0 120 100" fill="none" xmlns="http://www.w3.org/2000/svg">
        <path fill-rule="evenodd" clip-rule="evenodd" d="M43.1851 0.894847C17.5356 17.4213 3.28619 36.6568 0.436806 58.6011C-3.99904 92.7633 26.4515 109.485 41.8805 94.4606C57.3095 79.4365 48.0608 60.3668 36.8887 55.1541C25.7165 49.9412 18.8844 51.7567 20.0761 44.7908C21.2679 37.8251 37.1625 18.5117 51.1266 9.51726C52.053 8.72686 52.4055 7.19321 51.5135 6.02965C50.9266 5.26454 49.7757 3.76387 48.0608 1.52754C46.5611 -0.428027 45.1244 -0.354828 43.1851 0.894847Z" fill="#C3B4F2" fill-opacity="0.25"/>
        <path fill-rule="evenodd" clip-rule="evenodd" d="M111.156 0.894847C85.5064 17.4213 71.257 36.6568 68.4075 58.6011C63.9718 92.7633 94.4224 109.485 109.851 94.4606C125.28 79.4365 116.032 60.3668 104.86 55.1541C93.6874 49.9412 86.8549 51.7567 88.047 44.7908C89.2388 37.8251 105.133 18.5117 119.097 9.51726C120.024 8.72686 120.376 7.19321 119.484 6.02965C118.897 5.26454 117.747 3.76387 116.032 1.52754C114.532 -0.428027 113.095 -0.354828 111.156 0.894847Z" fill="#C3B4F2" fill-opacity="0.25"/>
    </symbol>

    <symbol id="facebook" viewBox="0 0 24 24" xmlns="http://www.w3.org/2000/svg">
        <path d="M9.19776 21.5645H13.1978V13.5545H16.8018L17.1978 9.57445H13.1978V7.56445C13.1978 7.29924 13.3031 7.04488 13.4907 6.85735C13.6782 6.66981 13.9325 6.56445 14.1978 6.56445H17.1978V2.56445H14.1978C12.8717 2.56445 11.5999 3.09124 10.6622 4.02892C9.72454 4.9666 9.19776 6.23837 9.19776 7.56445V9.57445H7.19776L6.80176 13.5545H9.19776V21.5645Z"/>
    </symbol>

    <symbol id="instagram" viewBox="0 0 24 24" xmlns="http://www.w3.org/2000/svg">
        <path d="M7.8 2.06445H16.2C19.4 2.06445 22 4.66445 22 7.86445V16.2645C22 17.8027 21.3889 19.278 20.3012 20.3657C19.2135 21.4534 17.7383 22.0645 16.2 22.0645H7.8C4.6 22.0645 2 19.4645 2 16.2645V7.86445C2 6.3262 2.61107 4.85094 3.69878 3.76323C4.78649 2.67552 6.26174 2.06445 7.8 2.06445ZM7.6 4.06445C6.64522 4.06445 5.72955 4.44374 5.05442 5.11887C4.37928 5.794 4 6.70967 4 7.66445V16.4645C4 18.4545 5.61 20.0645 7.6 20.0645H16.4C17.3548 20.0645 18.2705 19.6852 18.9456 19.01C19.6207 18.3349 20 17.4192 20 16.4645V7.66445C20 5.67445 18.39 4.06445 16.4 4.06445H7.6ZM17.25 5.56445C17.5815 5.56445 17.8995 5.69615 18.1339 5.93057C18.3683 6.16499 18.5 6.48293 18.5 6.81445C18.5 7.14597 18.3683 7.46392 18.1339 7.69834C17.8995 7.93276 17.5815 8.06445 17.25 8.06445C16.9185 8.06445 16.6005 7.93276 16.3661 7.69834C16.1317 7.46392 16 7.14597 16 6.81445C16 6.48293 16.1317 6.16499 16.3661 5.93057C16.6005 5.69615 16.9185 5.56445 17.25 5.56445ZM12 7.06445C13.3261 7.06445 14.5979 7.59124 15.5355 8.52892C16.4732 9.4666 17 10.7384 17 12.0645C17 13.3905 16.4732 14.6623 15.5355 15.6C14.5979 16.5377 13.3261 17.0645 12 17.0645C10.6739 17.0645 9.40215 16.5377 8.46447 15.6C7.52678 14.6623 7 13.3905 7 12.0645C7 10.7384 7.52678 9.4666 8.46447 8.52892C9.40215 7.59124 10.6739 7.06445 12 7.06445ZM12 9.06445C11.2044 9.06445 10.4413 9.38052 9.87868 9.94313C9.31607 10.5057 9 11.2688 9 12.0645C9 12.8601 9.31607 13.6232 9.87868 14.1858C10.4413 14.7484 11.2044 15.0645 12 15.0645C12.7956 15.0645 13.5587 14.7484 14.1213 14.1858C14.6839 13.6232 15 12.8601 15 12.0645C15 11.2688 14.6839 10.5057 14.1213 9.94313C13.5587 9.38052 12.7956 9.06445 12 9.06445Z"/>
    </symbol>

    <symbol id="youtube" viewBox="0 0 20 20" xmlns="http://www.w3.org/2000/svg">
        <path d="M8.33301 7.14795L13.333 10.0646L8.33301 12.9813V7.14795Z"/>
        <path d="M10 4.23096C17.5 4.23096 17.5 4.23096 17.5 10.0643C17.5 15.8976 17.5 15.8976 10 15.8976C2.5 15.8976 2.5 15.8976 2.5 10.0643C2.5 4.23096 2.5 4.23096 10 4.23096Z" stroke-width="2" stroke-linecap="round" stroke-linejoin="round"/>
    </symbol>





</svg>
