<svg xmlns="http://www.w3.org/2000/svg" style="display:none;">
    <!-- Символ для call -->
    <symbol id="call" width="24" height="24" viewBox="0 0 24 24">
        <mask id="mask0_384_2014" style="mask-type:alpha" maskUnits="userSpaceOnUse" x="0" y="0" width="24" height="24">
            <rect width="24" height="24" fill="#D9D9D9"/>
        </mask>
        <g mask="url(#mask0_384_2014)">
            <path d="M19.95 21C17.8667 21 15.8083 20.5458 13.775 19.6375C11.7417 18.7292 9.89167 17.4417 8.225 15.775C6.55833 14.1083 5.27083 12.2583 4.3625 10.225C3.45417 8.19167 3 6.13333 3 4.05C3 3.75 3.1 3.5 3.3 3.3C3.5 3.1 3.75 3 4.05 3H8.1C8.33333 3 8.54167 3.07917 8.725 3.2375C8.90833 3.39583 9.01667 3.58333 9.05 3.8L9.7 7.3C9.73333 7.56667 9.725 7.79167 9.675 7.975C9.625 8.15833 9.53333 8.31667 9.4 8.45L6.975 10.9C7.30833 11.5167 7.70417 12.1125 8.1625 12.6875C8.62083 13.2625 9.125 13.8167 9.675 14.35C10.1917 14.8667 10.7333 15.3458 11.3 15.7875C11.8667 16.2292 12.4667 16.6333 13.1 17L15.45 14.65C15.6 14.5 15.7958 14.3875 16.0375 14.3125C16.2792 14.2375 16.5167 14.2167 16.75 14.25L20.2 14.95C20.4333 15.0167 20.625 15.1375 20.775 15.3125C20.925 15.4875 21 15.6833 21 15.9V19.95C21 20.25 20.9 20.5 20.7 20.7C20.5 20.9 20.25 21 19.95 21ZM6.025 9L7.675 7.35L7.25 5H5.025C5.10833 5.68333 5.225 6.35833 5.375 7.025C5.525 7.69167 5.74167 8.35 6.025 9ZM14.975 17.95C15.625 18.2333 16.2875 18.4583 16.9625 18.625C17.6375 18.7917 18.3167 18.9 19 18.95V16.75L16.65 16.275L14.975 17.95Z"/>
        </g>
    </symbol>

    <!-- Символ для location_on -->
    <symbol id="location_on" width="24" height="24" viewBox="0 0 24 24">
        <mask id="mask0_384_2009" style="mask-type:alpha" maskUnits="userSpaceOnUse" x="0" y="0" width="24" height="24">
            <rect width="24" height="24"/>
        </mask>
        <g mask="url(#mask0_384_2009)">
            <path d="M12 12C12.55 12 13.0208 11.8042 13.4125 11.4125C13.8042 11.0208 14 10.55 14 10C14 9.45 13.8042 8.97917 13.4125 8.5875C13.0208 8.19583 12.55 8 12 8C11.45 8 10.9792 8.19583 10.5875 8.5875C10.1958 8.97917 10 9.45 10 10C10 10.55 10.1958 11.0208 10.5875 11.4125C10.9792 11.8042 11.45 12 12 12ZM12 19.35C14.0333 17.4833 15.5417 15.7875 16.525 14.2625C17.5083 12.7375 18 11.3833 18 10.2C18 8.38333 17.4208 6.89583 16.2625 5.7375C15.1042 4.57917 13.6833 4 12 4C10.3167 4 8.89583 4.57917 7.7375 5.7375C6.57917 6.89583 6 8.38333 6 10.2C6 11.3833 6.49167 12.7375 7.475 14.2625C8.45833 15.7875 9.96667 17.4833 12 19.35ZM12 22C9.31667 19.7167 7.3125 17.5958 5.9875 15.6375C4.6625 13.6792 4 11.8667 4 10.2C4 7.7 4.80417 5.70833 6.4125 4.225C8.02083 2.74167 9.88333 2 12 2C14.1167 2 15.9792 2.74167 17.5875 4.225C19.1958 5.70833 20 7.7 20 10.2C20 11.8667 19.3375 13.6792 18.0125 15.6375C16.6875 17.5958 14.6833 19.7167 12 22Z"/>
        </g>
    </symbol>

    <symbol id="arrow" width="24" height="24" viewBox="0 0 24 24" fill="none" xmlns="http://www.w3.org/2000/svg">
        <mask id="mask0_261_10419" style="mask-type:alpha" maskUnits="userSpaceOnUse" x="0" y="0" width="24" height="24">
            <rect x="24" width="24" height="24" transform="rotate(90 24 0)" fill="#D9D9D9"/>
        </mask>
        <g mask="url(#mask0_261_10419)">
            <path d="M8.6 12L14.6 6L16 7.4L11.4 12L16 16.6L14.6 18L8.6 12Z" fill="#3F4041"/>
        </g>
    </symbol>


    <symbol id="arrow-slider" viewBox="0 0 24 24" xmlns="http://www.w3.org/2000/svg">
        <path d="M20.3635 11.293C20.5509 11.4806 20.6562 11.7349 20.6562 12C20.6562 12.2652 20.5509 12.5195 20.3635 12.707L14.7065 18.364C14.6142 18.4595 14.5039 18.5357 14.3819 18.5881C14.2599 18.6405 14.1286 18.6681 13.9959 18.6693C13.8631 18.6704 13.7314 18.6451 13.6085 18.5948C13.4856 18.5446 13.374 18.4703 13.2801 18.3764C13.1862 18.2825 13.1119 18.1709 13.0616 18.048C13.0114 17.9251 12.9861 17.7934 12.9872 17.6606C12.9884 17.5278 13.016 17.3966 13.0684 17.2746C13.1208 17.1526 13.197 17.0423 13.2925 16.95L17.2425 13L3.99946 13C3.73425 13 3.47989 12.8947 3.29236 12.7071C3.10482 12.5196 2.99946 12.2652 2.99946 12C2.99946 11.7348 3.10482 11.4805 3.29236 11.2929C3.47989 11.1054 3.73425 11 3.99946 11L17.2425 11L13.2925 7.05002C13.1103 6.86142 13.0095 6.60882 13.0118 6.34662C13.0141 6.08443 13.1192 5.83361 13.3046 5.64821C13.4901 5.4628 13.7409 5.35763 14.0031 5.35535C14.2653 5.35307 14.5179 5.45386 14.7065 5.63602L20.3635 11.293Z"/>
    </symbol>

    <symbol id="arrow-slider-white" width="56" height="56" fill="none" viewBox="0 0 56 56" xmlns="http://www.w3.org/2000/svg">
        <rect x="1" y="-1" width="54" height="54" rx="27" transform="matrix(1 0 0 -1 0 54)" stroke="white" stroke-width="2"/>
        <mask id="mask0_261_12341" style="mask-type:alpha" maskUnits="userSpaceOnUse" x="16" y="16" width="24" height="24">
            <rect width="24" height="24" transform="matrix(1 0 0 -1 16 40)" fill="#D9D9D9"/>
        </mask>
        <g mask="url(#mask0_261_12341)">
            <path d="M30 22L28.6 23.45L32.15 27H20V29H32.15L28.6 32.55L30 34L36 28L30 22Z" fill="white"/>
        </g>
    </symbol>

    <symbol id="arrow-slider-dark" width="56" height="56" fill="none" viewBox="0 0 56 56" xmlns="http://www.w3.org/2000/svg">
        <rect x="1" y="-1" width="54" height="54" rx="27" transform="matrix(1 0 0 -1 0 54)" stroke="#1C1B1F" stroke-width="2"/>
        <mask id="mask0_261_12341" style="mask-type:alpha" maskUnits="userSpaceOnUse" x="16" y="16" width="24" height="24">
            <rect width="24" height="24" transform="matrix(1 0 0 -1 16 40)" fill="#D9D9D9"/>
        </mask>
        <g mask="url(#mask0_261_12341)">
            <path d="M30 22L28.6 23.45L32.15 27H20V29H32.15L28.6 32.55L30 34L36 28L30 22Z" fill="#1C1B1F"/>
        </g>
    </symbol>

    <symbol id="circle" viewBox="0 0 271 271" fill="none" xmlns="http://www.w3.org/2000/svg">
        <path d="M230 61.5376C270.861 113.717 261.686 189.141 209.506 230.001C157.327 270.862 81.9036 261.687 41.0428 209.507C0.182114 157.328 9.35753 81.9044 61.5367 41.0436C113.716 0.182897 189.14 9.35834 230 61.5376Z" stroke="#C3B4F2" stroke-opacity="0.15"/>
    </symbol>

</svg>
